<svg viewBox="0 0 469.34933 469.34933" xmlns="http://www.w3.org/2000/svg">
  <path d="M368 469.347656H58.667969C26.304688 469.347656 0 443.046875 0 410.683594V101.347656c0-32.359375 26.304688-58.664062 58.667969-58.664062h202.664062c8.832031 0 16 7.167968 16 16 0 8.832031-7.167969 16-16 16H58.667969C43.96875 74.683594 32 86.652344 32 101.347656v309.335938c0 14.699218 11.96875 26.664062 26.667969 26.664062H368c14.699219 0 26.667969-11.964844 26.667969-26.664062V208.015625c0-8.832031 7.167969-16 16-16s16 7.167969 16 16v202.667969c0 32.363281-26.304688 58.664062-58.667969 58.664062zm0 0M453.332031 170.683594c-8.832031 0-16-7.167969-16-16V32.015625H314.667969c-8.832031 0-16-7.167969-16-16s7.167969-16 16-16h138.664062c8.832031 0 16 7.167969 16 16v138.667969c0 8.832031-7.167969 16-16 16zm0 0"/>
  <path d="M208 277.347656c-4.097656 0-8.191406-1.554687-11.308594-4.691406-6.25-6.25-6.25-16.382812 0-22.636719L442.027344 4.6875c6.25-6.25 16.382812-6.25 22.632812 0s6.25 16.382812 0 22.636719L219.328125 272.65625c-3.136719 3.136719-7.230469 4.691406-11.328125 4.691406zm0 0"/>
</svg>
