<svg xmlns="http://www.w3.org/2000/svg" viewBox="0 0 804 270">
  <path d="M66.7554 143.921l39.9266-91.3258c1.686-3.7337 2.529-6.5039 2.529-8.3105 0-2.2884-1.746-3.8542-5.239-4.6973v-2.8906h27.913v2.8906c-2.831.8431-4.788 1.9572-5.872 3.3423-1.024 1.3851-2.981 5.3898-5.871 12.0141L80.3955 144.553c-1.5055 3.553-2.2583 6.113-2.2583 7.678 0 2.53 1.7163 4.156 5.1489 4.878V160H48.96v-2.891c3.4326-.722 5.1489-2.408 5.1489-5.058 0-1.446-.7829-3.945-2.3486-7.498L11.2915 52.2339c-2.22819-4.9984-3.88427-8.16-4.96826-9.4849-1.08398-1.3248-2.98095-2.3787-5.690916-3.1616v-2.8906H30.0806v2.8906c-3.5531.8431-5.3296 2.4089-5.3296 4.6973 0 2.0475.7829 4.8177 2.3486 8.3105l39.6558 91.3258zm154.1066-18.518h-66.033l-10.84 23.396c-1.024 2.228-1.535 3.794-1.535 4.697 0 1.807 1.776 3.011 5.329 3.613V160h-27.461v-2.891c2.469-.421 4.336-1.324 5.601-2.71 1.325-1.385 3.041-4.396 5.149-9.033l45.166-97.4681c1.084-2.3486 1.626-3.9444 1.626-4.7875 0-1.5658-1.476-2.7401-4.426-3.523v-2.8906h29.99v2.8906c-2.951.9635-4.427 2.2282-4.427 3.7939 0 .6625.542 2.168 1.626 4.5166l43.269 93.9451c3.192 6.926 5.3 10.991 6.324 12.195 1.023 1.205 3.252 2.228 6.684 3.071V160h-29.267v-2.891c3.493-.481 5.239-1.806 5.239-3.974 0-.964-.662-2.831-1.987-5.601l-10.027-22.131zm-5.33-11.743L187.8 52.7759 160.159 113.66h55.373zm74.163 34.597h78.769c2.53 0 4.306-.392 5.33-1.174 1.084-.783 1.897-2.319 2.439-4.607h2.891v23.305h-2.891c-.542-2.288-1.355-3.824-2.439-4.607-1.024-.783-2.8-1.174-5.33-1.174h-98.733v-2.891c2.349-.602 3.885-1.415 4.607-2.439.783-1.023 1.175-2.8 1.175-5.329V47.356c0-2.5293-.392-4.3059-1.175-5.3296-.782-1.0238-2.318-1.8368-4.607-2.439v-2.8906h25.745v2.8906c-2.288.6022-3.824 1.4152-4.607 2.439-.783 1.0237-1.174 2.8003-1.174 5.3296v100.901zm125.561-45.799v45.799h79.041c2.529 0 4.306-.392 5.329-1.174 1.084-.783 1.897-2.319 2.439-4.607h2.891v23.305h-2.8c-.602-2.288-1.446-3.824-2.53-4.607-1.023-.783-2.8-1.174-5.329-1.174h-99.004v-2.891c2.349-.602 3.884-1.415 4.607-2.439.783-1.023 1.174-2.8 1.174-5.329V47.356c0-2.5293-.391-4.3059-1.174-5.3296-.783-1.0238-2.319-1.8368-4.607-2.439v-2.8906h97.83c2.529 0 4.305-.3915 5.329-1.1743 1.024-.7829 1.837-2.3487 2.439-4.6973h2.891v23.3057h-2.891c-.542-2.2282-1.355-3.7338-2.439-4.5166-1.024-.7829-2.8-1.1744-5.329-1.1744h-77.867v42.2754h51.038c2.529 0 4.306-.3914 5.33-1.1743 1.084-.7829 1.897-2.3185 2.438-4.6069h2.891V108.24h-2.891c-.541-2.289-1.354-3.824-2.438-4.607-1.024-.783-2.801-1.175-5.33-1.175h-51.038zm130.711-55.102v68.201c0 8.069.421 13.76 1.264 17.072.844 3.252 2.59 6.083 5.24 8.492 6.443 5.781 18.458 8.671 36.042 8.671 19.151 0 31.707-3.402 37.669-10.207 1.987-2.288 3.312-4.998 3.974-8.13.663-3.192.994-8.491.994-15.898V47.356c0-2.4691-.392-4.2155-1.174-5.2393-.783-1.084-2.319-1.9271-4.607-2.5293v-2.8906h24.48v2.8906c-2.289.542-3.824 1.355-4.607 2.439-.783 1.0237-1.175 2.8003-1.175 5.3296v71.001c0 8.732-.843 15.386-2.529 19.963-3.131 8.19-9.033 14.213-17.705 18.067-8.612 3.854-20.566 5.781-35.862 5.781-22.884 0-38.541-4.426-46.972-13.279-3.433-3.553-5.842-7.588-7.227-12.104-1.325-4.577-1.987-10.72-1.987-18.428V47.356c0-2.5293-.392-4.3059-1.175-5.3296-.783-1.084-2.318-1.897-4.607-2.439v-2.8906h25.745v2.8906c-2.288.6022-3.824 1.4453-4.607 2.5293-.783 1.0238-1.174 2.7702-1.174 5.2393zm148.596 57.09v44.895c0 2.469.391 4.245 1.174 5.329.783 1.024 2.319 1.837 4.607 2.439V160H674.6v-2.891c2.288-.602 3.824-1.415 4.607-2.439.782-1.023 1.174-2.8 1.174-5.329V47.356c0-2.5293-.392-4.3059-1.174-5.3296-.783-1.084-2.319-1.897-4.607-2.439v-2.8906h67.658c9.274 0 16.591.5119 21.951 1.5356 5.42.9636 10.117 2.6799 14.092 5.1489 4.095 2.5293 7.407 5.9921 9.936 10.3882 2.891 4.9984 4.336 10.6291 4.336 16.8921 0 9.3946-3.131 17.0728-9.394 23.0347-6.203 5.9017-14.755 9.2737-25.655 10.1167l31.346 48.78c1.866 3.011 4.576 4.516 8.13 4.516V160h-28.545v-2.891c2.95-.481 4.426-1.324 4.426-2.529 0-.602-1.054-2.559-3.162-5.872l-28.003-44.262h-47.153zm0-11.653h49.954c6.805 0 11.923-.271 15.356-.813 3.493-.6022 6.564-1.6561 9.214-3.1616 6.203-3.6133 9.304-9.6656 9.304-18.1568 0-8.5514-3.192-14.6338-9.575-18.247-2.83-1.5658-5.992-2.6197-9.485-3.1617-3.433-.542-8.792-.813-16.079-.813h-48.689V92.793z" fill="#434343"/>
  <path d="M129.868 239.651l.499 7.428h-.499c-.666-2.224-1.617-3.824-2.852-4.802-1.236-.977-2.718-1.466-4.448-1.466-1.45 0-2.76.371-3.931 1.112-1.171.73-2.095 1.901-2.772 3.513-.666 1.611-.999 3.614-.999 6.01 0 1.976.317 3.69.951 5.14.634 1.45 1.584 2.562 2.852 3.335 1.278.774 2.734 1.161 4.367 1.161 1.418 0 2.669-.301 3.754-.903 1.085-.612 2.277-1.821 3.577-3.625l.5.322c-1.096 1.944-2.374 3.368-3.835 4.27-1.461.902-3.196 1.354-5.205 1.354-3.62 0-6.424-1.343-8.411-4.029-1.482-1.998-2.224-4.35-2.224-7.057 0-2.181.489-4.185 1.467-6.011.977-1.826 2.32-3.238 4.028-4.237 1.719-1.01 3.593-1.515 5.624-1.515 1.579 0 3.136.387 4.672 1.16.452.236.774.355.967.355.29 0 .543-.103.758-.307.279-.29.478-.692.596-1.208h.564zm25.636 11.199c1.515.322 2.648.838 3.4 1.546 1.042.989 1.563 2.197 1.563 3.626 0 1.085-.344 2.127-1.031 3.126-.688.988-1.633 1.713-2.836 2.175-1.193.451-3.019.677-5.479.677h-10.312v-.596h.821c.913 0 1.569-.29 1.966-.87.247-.376.371-1.177.371-2.401v-14.115c0-1.354-.156-2.208-.467-2.562-.419-.473-1.042-.709-1.87-.709h-.821v-.597h9.442c1.762 0 3.174.129 4.238.387 1.611.387 2.841 1.074 3.69 2.063.848.977 1.273 2.105 1.273 3.383 0 1.096-.333 2.079-.999 2.949-.666.86-1.649 1.499-2.949 1.918zm-8.443-.871c.397.076.848.135 1.353.178.516.032 1.08.048 1.692.048 1.568 0 2.745-.166 3.529-.499.795-.344 1.402-.865 1.821-1.563.419-.699.628-1.461.628-2.289 0-1.278-.521-2.368-1.563-3.271-1.042-.902-2.562-1.353-4.56-1.353-1.074 0-2.041.118-2.9.354v8.395zm0 10.442c1.246.29 2.476.435 3.689.435 1.945 0 3.427-.435 4.448-1.305 1.02-.881 1.531-1.966 1.531-3.255 0-.849-.231-1.665-.693-2.449-.462-.785-1.214-1.402-2.256-1.853-1.042-.452-2.331-.677-3.867-.677-.666 0-1.236.011-1.708.032-.473.022-.854.059-1.144.113v8.959zm38.559-5.736h-8.46l-1.482 3.448c-.366.848-.548 1.482-.548 1.901 0 .333.156.629.467.886.322.247 1.01.409 2.063.484V262h-6.881v-.596c.913-.161 1.504-.371 1.773-.629.548-.515 1.155-1.563 1.821-3.142l7.686-17.982h.564l7.605 18.176c.612 1.461 1.166 2.411 1.66 2.852.505.429 1.203.671 2.094.725V262h-8.62v-.596c.87-.043 1.455-.188 1.756-.435.312-.247.467-.548.467-.903 0-.472-.214-1.219-.644-2.239l-1.321-3.142zm-.452-1.193l-3.706-8.83-3.802 8.83h7.508zm21.334-13.342h18.031v.597c-1.353.043-2.218.257-2.594.644-.376.387-.564 1.3-.564 2.739v12.101c0 2.342.134 3.792.403 4.351.268.548 1.139.822 2.61.822v6.88h-.548c-.322-1.59-.843-2.873-1.563-3.851-.709-.967-1.52-1.617-2.433-1.95-.902-.322-1.987-.483-3.255-.483h-5.575c-2.438 0-4.232.661-5.382 1.982-1.138 1.321-1.82 2.755-2.046 4.302h-.548v-6.88c1.73-.151 3.137-1.187 4.222-3.11 1.085-1.923 1.837-4.281 2.256-7.074.419-2.803.628-5.102.628-6.896 0-1.074-.134-1.864-.403-2.369-.268-.505-.591-.822-.967-.951-.365-.129-1.122-.214-2.272-.257v-.597zm5.253 1.193c-.268 6.37-.778 10.839-1.53 13.406s-1.762 4.587-3.03 6.059h8.089c1.44 0 2.299-.124 2.578-.371.29-.258.435-1.08.435-2.465v-16.629h-6.542zm28.537 0v8.636h4.802c1.246 0 2.078-.187 2.497-.563.559-.495.87-1.365.935-2.611h.596v7.606h-.596c-.151-1.064-.301-1.746-.451-2.047-.194-.376-.511-.671-.951-.886-.44-.215-1.117-.322-2.03-.322h-4.802v7.202c0 .967.043 1.558.129 1.773.086.204.236.37.451.499.215.119.623.178 1.225.178h3.706c1.235 0 2.132-.086 2.691-.258.558-.172 1.095-.51 1.611-1.015.666-.666 1.348-1.671 2.046-3.014h.645L250.911 262h-16.839v-.596h.774c.515 0 1.004-.124 1.466-.371.344-.172.575-.429.693-.773.129-.344.193-1.048.193-2.111v-14.196c0-1.386-.139-2.24-.419-2.562-.386-.43-1.031-.644-1.933-.644h-.774v-.597h16.839l.241 4.786h-.628c-.226-1.149-.478-1.939-.757-2.369-.269-.429-.672-.757-1.209-.983-.43-.161-1.187-.241-2.272-.241h-5.994zm37.786-1.193l.225 4.77h-.58c-.344-1.547-.875-2.53-1.595-2.949-.709-.419-1.977-.628-3.803-.628h-3.674v8.653h.87c2.675 0 4.641.171 5.898.515 1.257.333 2.277.978 3.061 1.934.795.956 1.193 2.105 1.193 3.448 0 1.622-.602 3.045-1.805 4.27-1.203 1.225-3.276 1.837-6.22 1.837h-9.249v-.596c1.354-.043 2.219-.258 2.595-.645.376-.386.564-1.3.564-2.739v-13.89c0-1.106-.081-1.853-.242-2.239-.15-.387-.403-.661-.757-.822-.355-.161-1.01-.269-1.966-.322v-.597h15.485zm-9.427 20.545c.946.15 1.682.225 2.208.225 1.321 0 2.514-.44 3.577-1.321 1.074-.881 1.611-2.1 1.611-3.658 0-1.611-.558-2.803-1.675-3.577-1.118-.784-2.536-1.176-4.254-1.176-.484 0-.972.043-1.467.129v9.378zm27.151-10.409h10.152v-6.252c0-1.117-.07-1.853-.21-2.208-.107-.268-.333-.499-.677-.693-.462-.258-.95-.386-1.466-.386h-.773v-.597h9.345v.597h-.773c-.516 0-1.004.123-1.466.37-.344.172-.58.435-.709.79-.119.343-.178 1.052-.178 2.127v14.099c0 1.106.07 1.837.21 2.191.107.269.327.5.66.693.473.258.967.387 1.483.387h.773V262h-9.345v-.596h.773c.892 0 1.542-.263 1.95-.79.268-.343.403-1.171.403-2.481v-6.655h-10.152v6.655c0 1.106.07 1.837.21 2.191.107.269.333.5.676.693.462.258.951.387 1.467.387h.789V262h-9.361v-.596h.773c.902 0 1.558-.263 1.966-.79.258-.343.386-1.171.386-2.481v-14.099c0-1.117-.069-1.853-.209-2.208-.107-.268-.328-.499-.661-.693-.472-.258-.966-.386-1.482-.386h-.773v-.597h9.361v.597h-.789c-.516 0-1.005.123-1.467.37-.333.172-.563.435-.692.79-.129.343-.194 1.052-.194 2.127v6.252zm40.412 4.399h-8.459l-1.483 3.448c-.365.848-.547 1.482-.547 1.901 0 .333.155.629.467.886.322.247 1.01.409 2.062.484V262h-6.88v-.596c.913-.161 1.504-.371 1.772-.629.548-.515 1.155-1.563 1.821-3.142l7.686-17.982h.564l7.606 18.176c.612 1.461 1.165 2.411 1.659 2.852.505.429 1.204.671 2.095.725V262h-8.62v-.596c.87-.043 1.455-.188 1.756-.435.311-.247.467-.548.467-.903 0-.472-.215-1.219-.644-2.239l-1.322-3.142zm-.451-1.193l-3.706-8.83-3.803 8.83h7.509zM352.924 262h5.833l7.396-10.216c.548.022.993.032 1.337.032h.451c.162-.01.328-.021.5-.032v6.349c0 1.375-.15 2.229-.451 2.562-.408.472-1.021.709-1.837.709h-.854V262h9.362v-.596h-.822c-.924 0-1.585-.301-1.982-.903-.226-.333-.338-1.122-.338-2.368v-14.115c0-1.375.15-2.229.451-2.562.419-.473 1.042-.709 1.869-.709h.822v-.597h-7.96c-2.321 0-4.034.172-5.14.516-1.096.333-2.031.956-2.804 1.869-.763.903-1.144 1.982-1.144 3.239 0 1.343.435 2.508 1.305 3.497.881.988 2.24 1.686 4.077 2.094l-4.512 6.268c-1.031 1.44-1.918 2.396-2.659 2.868-.741.473-1.708.774-2.9.903V262zm15.517-11.231c-.204 0-.381.005-.532.016h-.37c-2.084 0-3.658-.451-4.722-1.353-1.052-.903-1.579-2.052-1.579-3.449 0-1.364.425-2.47 1.273-3.319.86-.859 1.993-1.289 3.4-1.289.623 0 1.466.102 2.53.306v9.088zm40.267-9.426h-10.135v16.677c0 1.439.182 2.353.548 2.739.376.387 1.246.602 2.61.645V262h-9.41v-.596c1.353-.043 2.218-.258 2.594-.645.376-.386.564-1.3.564-2.739v-13.89c0-1.439-.188-2.352-.564-2.739-.376-.387-1.241-.601-2.594-.644v-.597h22.639v.597c-1.354.043-2.218.257-2.594.644-.376.387-.564 1.3-.564 2.739v13.89c0 1.439.188 2.353.564 2.739.376.387 1.24.602 2.594.645V262h-9.394v-.596c1.343-.043 2.202-.253 2.578-.629.376-.386.564-1.305.564-2.755v-16.677zm27.183-1.692c2.836 0 5.291 1.079 7.364 3.239 2.084 2.148 3.126 4.834 3.126 8.056 0 3.32-1.048 6.075-3.142 8.266-2.095 2.192-4.63 3.288-7.606 3.288-3.008 0-5.537-1.069-7.589-3.207-2.041-2.138-3.062-4.904-3.062-8.298 0-3.47 1.182-6.301 3.545-8.492 2.052-1.901 4.507-2.852 7.364-2.852zm-.306 1.176c-1.955 0-3.523.725-4.705 2.175-1.472 1.805-2.208 4.448-2.208 7.928 0 3.567.763 6.311 2.288 8.234 1.171 1.461 2.718 2.191 4.641 2.191 2.052 0 3.744-.8 5.076-2.4 1.343-1.601 2.014-4.125 2.014-7.574 0-3.738-.736-6.526-2.208-8.362-1.181-1.461-2.814-2.192-4.898-2.192zm35.868.516h-6.767v6.123c0 6.177-.532 10.189-1.596 12.036-1.063 1.837-2.529 2.756-4.399 2.756-.795 0-1.407-.194-1.837-.58-.429-.398-.644-.854-.644-1.37 0-.397.14-.741.419-1.031.279-.29.618-.435 1.015-.435.333 0 .714.161 1.144.483.483.355.919.532 1.305.532.935 0 1.698-.774 2.288-2.32.591-1.558.887-4.501.887-8.83v-4.577c0-1.439-.188-2.352-.564-2.739-.376-.387-1.241-.601-2.595-.644v-.597h17.58v.597c-1.354.043-2.218.257-2.594.644-.376.387-.564 1.3-.564 2.739v13.89c0 1.439.188 2.353.564 2.739.376.387 1.24.602 2.594.645V262h-9.394v-.596c1.353-.043 2.218-.258 2.594-.645.376-.386.564-1.3.564-2.739v-16.677zm32.098 2.417c0-1.311-.215-2.138-.645-2.482-.419-.354-1.273-.531-2.562-.531v-.597h9.459v.597c-1.354.043-2.219.257-2.595.644-.375.387-.563 1.3-.563 2.739v13.89c0 1.439.188 2.353.563 2.739.376.387 1.241.602 2.595.645V262h-9.459v-.596c1.386-.043 2.267-.258 2.643-.645.376-.397.564-1.31.564-2.739v-12.536l-10.135 12.987c.01.935.069 1.563.177 1.885.118.312.381.559.789.742.419.182 1.155.284 2.208.306V262h-9.426v-.596c1.353-.043 2.218-.258 2.594-.645.376-.386.564-1.3.564-2.739v-13.89c0-1.439-.188-2.352-.564-2.739-.376-.387-1.241-.601-2.594-.644v-.597h9.426v.597c-1.364.043-2.235.257-2.611.644-.375.387-.563 1.3-.563 2.739v12.585l10.135-12.955zm33.241-3.61l.081 5.108h-.628c-.043-1.031-.264-1.858-.661-2.481-.397-.623-.886-1.015-1.466-1.176-.57-.172-1.397-.258-2.482-.258h-6.123v16.677c0 1.439.183 2.353.548 2.739.376.387 1.235.602 2.578.645V262h-9.378v-.596c1.354-.043 2.218-.258 2.594-.645.376-.386.564-1.3.564-2.739v-13.89c0-1.439-.188-2.352-.564-2.739-.376-.387-1.24-.601-2.594-.644v-.597h17.531zm15.969 11.618v6.365c0 1.375.15 2.229.451 2.562.408.472 1.026.709 1.853.709h.838V262h-9.362v-.596h.822c.924 0 1.584-.301 1.982-.903.215-.333.322-1.122.322-2.368v-14.115c0-1.375-.145-2.229-.435-2.562-.419-.473-1.042-.709-1.869-.709h-.822v-.597h8.008c1.955 0 3.497.204 4.625.613 1.128.397 2.078 1.074 2.852 2.03.773.956 1.16 2.089 1.16 3.4 0 1.783-.591 3.233-1.772 4.35-1.171 1.118-2.831 1.676-4.979 1.676-.527 0-1.096-.037-1.708-.113-.613-.075-1.268-.188-1.966-.338zm0-.918c.569.107 1.074.188 1.514.241.441.054.817.081 1.128.081 1.118 0 2.079-.43 2.885-1.289.816-.87 1.224-1.993 1.224-3.368 0-.945-.193-1.821-.58-2.626-.387-.817-.934-1.424-1.643-1.821-.709-.408-1.515-.612-2.417-.612-.548 0-1.252.102-2.111.306v9.088zm34.949 3.835h-8.459l-1.482 3.448c-.366.848-.548 1.482-.548 1.901 0 .333.155.629.467.886.322.247 1.01.409 2.062.484V262h-6.88v-.596c.913-.161 1.504-.371 1.773-.629.547-.515 1.154-1.563 1.82-3.142l7.686-17.982h.564l7.606 18.176c.612 1.461 1.165 2.411 1.66 2.852.504.429 1.203.671 2.094.725V262h-8.62v-.596c.87-.043 1.455-.188 1.756-.435.312-.247.467-.548.467-.903 0-.472-.215-1.219-.644-2.239l-1.322-3.142zm-.451-1.193l-3.706-8.83-3.803 8.83h7.509zM622.467 262h-9.426v-.596c1.235-.022 2.062-.188 2.481-.5.43-.311.655-.956.677-1.933-3.631 0-6.252-.763-7.864-2.288-1.6-1.526-2.4-3.433-2.4-5.721 0-1.718.472-3.185 1.418-4.399.956-1.213 2.132-2.051 3.528-2.513 1.397-.473 3.169-.709 5.318-.709-.022-.903-.161-1.499-.419-1.789-.258-.29-.548-.489-.87-.596-.312-.118-.935-.188-1.869-.209v-.597h9.426v.597c-1.268.043-2.1.236-2.498.58-.397.333-.623 1.004-.677 2.014 2.321 0 4.147.252 5.479.757 1.332.505 2.465 1.343 3.4 2.514.934 1.171 1.402 2.621 1.402 4.35 0 2.224-.779 4.115-2.337 5.672-1.557 1.558-4.205 2.337-7.944 2.337.033.967.253 1.611.661 1.933.419.312 1.257.478 2.514.5V262zm-3.175-4.222c1.58 0 2.836-.204 3.771-.612.945-.419 1.724-1.166 2.336-2.24.623-1.074.935-2.401.935-3.98 0-1.482-.312-2.734-.935-3.754-.623-1.031-1.407-1.73-2.352-2.095-.935-.376-2.186-.564-3.755-.564v13.245zm-3.093 0v-13.245c-1.665 0-2.949.204-3.851.613-.903.397-1.66 1.079-2.272 2.046-.602.967-.903 2.218-.903 3.754 0 1.687.355 3.089 1.064 4.206.72 1.117 1.563 1.837 2.53 2.159.966.312 2.11.467 3.432.467zm39.816-14.018c0-1.311-.215-2.138-.645-2.482-.419-.354-1.273-.531-2.562-.531v-.597h9.459v.597c-1.354.043-2.219.257-2.595.644-.376.387-.564 1.3-.564 2.739v13.89c0 1.439.188 2.353.564 2.739.376.387 1.241.602 2.595.645V262h-9.459v-.596c1.386-.043 2.267-.258 2.643-.645.376-.397.564-1.31.564-2.739v-12.536l-10.136 12.987c.011.935.07 1.563.178 1.885.118.312.381.559.789.742.419.182 1.155.284 2.208.306V262h-9.427v-.596c1.354-.043 2.219-.258 2.595-.645.376-.386.564-1.3.564-2.739v-13.89c0-1.439-.188-2.352-.564-2.739-.376-.387-1.241-.601-2.595-.644v-.597h9.427v.597c-1.365.043-2.235.257-2.611.644-.376.387-.564 1.3-.564 2.739v12.585l10.136-12.955zM670.839 262h5.833l7.396-10.216c.548.022.994.032 1.337.032h.451c.162-.01.328-.021.5-.032v6.349c0 1.375-.15 2.229-.451 2.562-.408.472-1.021.709-1.837.709h-.854V262h9.362v-.596h-.822c-.924 0-1.585-.301-1.982-.903-.226-.333-.338-1.122-.338-2.368v-14.115c0-1.375.15-2.229.451-2.562.419-.473 1.042-.709 1.869-.709h.822v-.597h-7.96c-2.321 0-4.034.172-5.14.516-1.096.333-2.031.956-2.804 1.869-.763.903-1.144 1.982-1.144 3.239 0 1.343.435 2.508 1.305 3.497.881.988 2.24 1.686 4.077 2.094l-4.512 6.268c-1.031 1.44-1.918 2.396-2.659 2.868-.741.473-1.708.774-2.9.903V262zm15.517-11.231c-.204 0-.381.005-.532.016h-.37c-2.084 0-3.658-.451-4.722-1.353-1.052-.903-1.579-2.052-1.579-3.449 0-1.364.425-2.47 1.273-3.319.86-.859 1.993-1.289 3.4-1.289.623 0 1.466.102 2.53.306v9.088z" fill="#6B6A6A"/>
</svg>
