<svg xmlns="http://www.w3.org/2000/svg" viewBox="0 0 582 30">
  <path d="M18.8677.650879l.4995 7.428221h-.4995c-.666-2.22363-1.6167-3.82422-2.8521-4.80176-1.2353-.97754-2.7177-1.4663-4.4472-1.4663-1.4502 0-2.76078.3706-3.93168 1.11181-1.1709.73047-2.09473 1.90137-2.77149 3.5127-.66601 1.61133-.99902 3.61475-.99902 6.01025 0 1.9766.3169 3.6899.95068 5.1401.63379 1.4502 1.58448 2.562 2.85206 3.3355 1.27832.7734 2.73385 1.1601 4.36665 1.1601 1.418 0 2.6695-.3007 3.7544-.9023 1.085-.6123 2.2774-1.8208 3.5772-3.6255l.4995.3223c-1.0957 1.9443-2.374 3.3677-3.835 4.27-1.4609.9023-3.1958 1.3535-5.2046 1.3535-3.62007 0-6.42378-1.3428-8.41108-4.0283C.933594 17.4731.192383 15.1206.192383 12.4136c0-2.1807.488769-4.18411 1.466307-6.01028.97754-1.82617 2.32031-3.23877 4.02832-4.23779C7.40576 1.15576 9.28027.650879 11.3105.650879c1.5791 0 3.1368.386721 4.6729 1.160161.4512.23632.7734.35449.9668.35449.29 0 .5425-.10205.7573-.30615.2793-.29004.478-.69288.5962-1.208501h.564zM44.5039 11.8496c1.5147.3223 2.648.8379 3.3999 1.5469 1.042.9883 1.563 2.1968 1.563 3.6255 0 1.0849-.3438 2.1269-1.0313 3.1259-.6875.9883-1.6328 1.7134-2.8359 2.1753-1.1924.4512-3.0185.6768-5.4785.6768H29.8086v-.5962h.8218c.9131 0 1.5683-.29 1.9658-.8701.2471-.376.3706-1.1763.3706-2.4009V5.01758c0-1.35352-.1558-2.20752-.4673-2.56201-.4189-.47266-1.042-.70899-1.8691-.70899h-.8218v-.59619h9.4424c1.7617 0 3.1743.12891 4.2378.38672 1.6113.38672 2.8413 1.07422 3.6899 2.0625.8486.97754 1.273 2.10547 1.273 3.38379 0 1.0957-.333 2.07861-.9991 2.94873-.666.85937-1.6489 1.49857-2.9487 1.91747zm-8.4434-.8701c.3975.0752.8487.1343 1.3536.1772.5156.0323 1.0796.0484 1.6919.0484 1.5683 0 2.7446-.1665 3.5288-.4995.7949-.3438 1.4018-.86478 1.8208-1.56302.4189-.69824.6284-1.46094.6284-2.28809 0-1.27832-.521-2.36865-1.563-3.27099-1.042-.90235-2.562-1.35352-4.5601-1.35352-1.0742 0-2.041.11816-2.9004.35449v8.39503zm0 10.4414c1.2461.29 2.4761.4351 3.69.4351 1.9443 0 3.4267-.4351 4.4473-1.3052 1.0205-.8809 1.5307-1.9658 1.5307-3.2549 0-.8486-.2309-1.665-.6929-2.4492-.4619-.7842-1.2138-1.4019-2.2558-1.853-1.042-.4512-2.3311-.6768-3.8672-.6768-.666 0-1.2354.0107-1.708.0322-.4727.0215-.854.0591-1.1441.1128v8.959zm38.5591-5.7363h-8.4594l-1.4825 3.4482c-.3652.8486-.5478 1.4824-.5478 1.9014 0 .333.1557.6284.4673.8862.3222.2471 1.0097.4082 2.0625.4834V23h-6.8804v-.5962c.9131-.1611 1.5039-.3706 1.7725-.6284.5478-.5156 1.1547-1.563 1.8208-3.1421L71.0586.650879h.564L79.228 18.8267c.6123 1.4609 1.1656 2.4116 1.6597 2.852.5049.4297 1.2031.6714 2.0947.7251V23h-8.6206v-.5962c.8701-.043 1.4556-.188 1.7564-.435.3115-.2471.4672-.5479.4672-.9024 0-.4726-.2148-1.2192-.6445-2.2397l-1.3213-3.1421zm-.4511-1.1924l-3.7061-8.83009-3.8027 8.83009h7.5088zM95.5024 1.15039h18.0306v.59619c-1.353.04297-2.218.25781-2.594.64453-.376.38672-.564 1.29981-.564 2.73926V17.2314c0 2.3418.134 3.792.403 4.3506.268.5479 1.139.8218 2.61.8218v6.8804h-.548c-.322-1.5899-.843-2.8736-1.563-3.8511-.709-.9668-1.52-1.6167-2.433-1.9497-.902-.3223-1.987-.4834-3.255-.4834h-5.575c-2.4383 0-4.2323.6606-5.3817 1.9819-1.1386 1.3213-1.8208 2.7554-2.0464 4.3023h-.5478v-6.8804c1.7295-.1504 3.1367-1.187 4.2217-3.1099 1.0849-1.9228 1.8369-4.2807 2.2558-7.0737.419-2.8037.6284-5.10252.6284-6.89647 0-1.07422-.1342-1.86377-.4028-2.36865-.2685-.50488-.5908-.82178-.9668-.95069-.3652-.1289-1.1225-.21484-2.272-.25781v-.59619zm5.2526 1.19238c-.268 6.37012-.7784 10.83883-1.5304 13.40623-.7519 2.5674-1.7617 4.5869-3.0293 6.0586h8.0887c1.44 0 2.299-.1235 2.578-.3706.29-.2578.435-1.0796.435-2.4653V2.34277h-6.542zm28.537 0v8.63673h4.802c1.246 0 2.078-.188 2.497-.564.559-.49411.87-1.36423.935-2.61032h.596v7.60542h-.596c-.151-1.0634-.301-1.7456-.451-2.0463-.194-.376-.511-.6714-.951-.8863-.44-.2148-1.117-.3222-2.03-.3222h-4.802v7.2026c0 .9668.043 1.5576.129 1.7725.086.2041.236.3706.451.4995.215.1181.623.1772 1.225.1772h3.706c1.235 0 2.132-.0859 2.691-.2578.558-.1719 1.095-.5102 1.611-1.0151.666-.666 1.348-1.6704 2.046-3.0132h.645L139.911 23h-16.839v-.5962h.774c.515 0 1.004-.1235 1.466-.3706.344-.1719.575-.4297.693-.7734.129-.3438.193-1.0474.193-2.1109V4.95312c0-1.38574-.139-2.23974-.419-2.56201-.386-.42968-1.031-.64453-1.933-.64453h-.774v-.59619h16.839l.241 4.78565h-.628c-.226-1.14942-.478-1.93897-.757-2.36866-.269-.42968-.672-.75732-1.209-.98291-.43-.16113-1.187-.2417-2.272-.2417h-5.994zm37.786-1.19238l.225 4.76953h-.58c-.344-1.54687-.875-2.52978-1.595-2.94873-.709-.41894-1.977-.62842-3.803-.62842h-3.674v8.65283h.87c2.675 0 4.641.1719 5.898.5156 1.257.333 2.277.9776 3.061 1.9336.795.9561 1.193 2.1055 1.193 3.4483 0 1.622-.602 3.0454-1.805 4.27-1.203 1.2246-3.276 1.8369-6.22 1.8369h-9.249v-.5962c1.354-.043 2.219-.2578 2.595-.6445.376-.3867.564-1.2998.564-2.7393V5.13037c0-1.10644-.081-1.85303-.242-2.23975-.15-.38671-.403-.66064-.757-.82177-.355-.16114-1.01-.26856-1.966-.32227v-.59619h15.485zm-9.427 20.54441c.946.1504 1.682.2256 2.208.2256 1.321 0 2.514-.4404 3.577-1.3213 1.074-.8808 1.611-2.1001 1.611-3.6577 0-1.6113-.558-2.8037-1.675-3.5771-1.118-.7842-2.536-1.1763-4.254-1.1763-.484 0-.972.043-1.467.1289v9.3779zm27.151-10.4092h10.152V5.03369c0-1.11719-.07-1.85303-.21-2.20752-.107-.26855-.333-.49951-.677-.69287-.462-.25781-.95-.38672-1.466-.38672h-.773v-.59619h9.345v.59619h-.773c-.516 0-1.004.12354-1.466.37061-.344.17187-.58.43506-.709.78955-.119.34375-.178 1.05273-.178 2.12695V19.1328c0 1.1065.07 1.8369.21 2.1914.107.2686.327.4995.66.6929.473.2578.967.3867 1.483.3867h.773V23h-9.345v-.5962h.773c.892 0 1.542-.2632 1.95-.7895.268-.3438.403-1.1709.403-2.4815V12.478h-10.152v6.6548c0 1.1065.07 1.8369.21 2.1914.107.2686.333.4995.676.6929.462.2578.951.3867 1.467.3867h.789V23h-9.361v-.5962h.773c.902 0 1.558-.2632 1.966-.7895.258-.3438.386-1.1709.386-2.4815V5.03369c0-1.11719-.069-1.85303-.209-2.20752-.107-.26855-.328-.49951-.661-.69287-.472-.25781-.966-.38672-1.482-.38672h-.773v-.59619h9.361v.59619h-.789c-.516 0-1.005.12354-1.467.37061-.333.17187-.563.43506-.692.78955-.129.34375-.194 1.05273-.194 2.12695v6.25191zm40.412 4.399h-8.459l-1.483 3.4482c-.365.8486-.547 1.4824-.547 1.9014 0 .333.155.6284.467.8862.322.2471 1.01.4082 2.062.4834V23h-6.88v-.5962c.913-.1611 1.504-.3706 1.772-.6284.548-.5156 1.155-1.563 1.821-3.1421L221.653.650879h.564l7.606 18.175821c.612 1.4609 1.165 2.4116 1.659 2.852.505.4297 1.204.6714 2.095.7251V23h-8.62v-.5962c.87-.043 1.455-.188 1.756-.435.311-.2471.467-.5479.467-.9024 0-.4726-.215-1.2192-.644-2.2397l-1.322-3.1421zm-.451-1.1924l-3.706-8.83009-3.803 8.83009h7.509zM241.924 23h5.833l7.396-10.2158c.548.0215.993.0322 1.337.0322h.451c.162-.0107.328-.0215.5-.0322v6.3486c0 1.375-.15 2.229-.451 2.562-.408.4727-1.021.709-1.837.709h-.854V23h9.362v-.5962h-.822c-.924 0-1.585-.3008-1.982-.9023-.226-.333-.338-1.1226-.338-2.3687V5.01758c0-1.375.15-2.22901.451-2.56201.419-.47266 1.042-.70899 1.869-.70899h.822v-.59619h-7.96c-2.321 0-4.034.17188-5.14.51563-1.096.333-2.031.95605-2.804 1.86914-.763.90234-1.144 1.98193-1.144 3.23877 0 1.34277.435 2.5083 1.305 3.49657.881.9883 2.24 1.6865 4.077 2.0947l-4.512 6.2681c-1.031 1.4395-1.918 2.3955-2.659 2.8682-.741.4726-1.708.7734-2.9.9023V23zm15.517-11.231c-.204 0-.381.0054-.532.0162h-.37c-2.084 0-3.658-.4512-4.722-1.3536-1.052-.9023-1.579-2.05172-1.579-3.4482 0-1.36426.425-2.4707 1.273-3.31934.86-.85937 1.993-1.28906 3.4-1.28906.623 0 1.466.10205 2.53.30615V11.769zm40.267-9.42623h-10.135V19.02c0 1.4395.182 2.3526.548 2.7393.376.3867 1.246.6015 2.61.6445V23h-9.41v-.5962c1.353-.043 2.218-.2578 2.594-.6445.376-.3867.564-1.2998.564-2.7393V5.13037c0-1.43945-.188-2.35254-.564-2.73926-.376-.38672-1.241-.60156-2.594-.64453v-.59619h22.639v.59619c-1.354.04297-2.218.25781-2.594.64453-.376.38672-.564 1.29981-.564 2.73926V19.02c0 1.4395.188 2.3526.564 2.7393.376.3867 1.24.6015 2.594.6445V23h-9.394v-.5962c1.343-.043 2.202-.2524 2.578-.6284.376-.3867.564-1.3052.564-2.7554V2.34277zM324.891.650879c2.836 0 5.291 1.079591 7.364 3.238771 2.084 2.14844 3.126 4.83398 3.126 8.05665 0 3.3193-1.048 6.0747-3.142 8.2661-2.095 2.1914-4.63 3.2871-7.606 3.2871-3.008 0-5.537-1.0688-7.589-3.2065-2.041-2.1377-3.062-4.9038-3.062-8.2984 0-3.4697 1.182-6.30026 3.545-8.49167 2.052-1.90137 4.507-2.852051 7.364-2.852051zm-.306 1.176271c-1.955 0-3.523.7251-4.705 2.17529-1.472 1.80469-2.208 4.44727-2.208 7.92776 0 3.5664.763 6.311 2.288 8.2339 1.171 1.4609 2.718 2.1914 4.641 2.1914 2.052 0 3.744-.8003 5.076-2.4009 1.343-1.6006 2.014-4.125 2.014-7.5733 0-3.73823-.736-6.52583-2.208-8.36275-1.181-1.46093-2.814-2.1914-4.898-2.1914zm35.868.51562h-6.767v6.12305c0 6.17678-.532 10.18898-1.596 12.03658-1.063 1.837-2.529 2.7554-4.399 2.7554-.795 0-1.407-.1933-1.837-.5801-.429-.3974-.644-.854-.644-1.3696 0-.3975.14-.7412.419-1.0312.279-.2901.618-.4351 1.015-.4351.333 0 .714.1611 1.144.4834.483.3545.919.5317 1.305.5317.935 0 1.698-.7734 2.288-2.3203.591-1.5576.887-4.501.887-8.83006V5.13037c0-1.43945-.188-2.35254-.564-2.73926-.376-.38672-1.241-.60156-2.595-.64453v-.59619h17.58v.59619c-1.354.04297-2.218.25781-2.594.64453-.376.38672-.564 1.29981-.564 2.73926V19.02c0 1.4395.188 2.3526.564 2.7393.376.3867 1.24.6015 2.594.6445V23h-9.394v-.5962c1.353-.043 2.218-.2578 2.594-.6445.376-.3867.564-1.2998.564-2.7393V2.34277zm32.098 2.417c0-1.31055-.215-2.1377-.645-2.48145-.419-.35449-1.273-.53174-2.562-.53174v-.59619h9.459v.59619c-1.354.04297-2.219.25781-2.595.64453-.375.38672-.563 1.29981-.563 2.73926V19.02c0 1.4395.188 2.3526.563 2.7393.376.3867 1.241.6015 2.595.6445V23h-9.459v-.5962c1.386-.043 2.267-.2578 2.643-.6445.376-.3975.564-1.3106.564-2.7393V6.48389L382.416 19.4712c.01.9346.069 1.563.177 1.8852.118.3116.381.5586.789.7413.419.1826 1.155.2846 2.208.3061V23h-9.426v-.5962c1.353-.043 2.218-.2578 2.594-.6445.376-.3867.564-1.2998.564-2.7393V5.13037c0-1.43945-.188-2.35254-.564-2.73926-.376-.38672-1.241-.60156-2.594-.64453v-.59619h9.426v.59619c-1.364.04297-2.235.25781-2.611.64453-.375.38672-.563 1.29981-.563 2.73926V17.7148l10.135-12.95503zm33.241-3.60938l.081 5.10791h-.628c-.043-1.03125-.264-1.8584-.661-2.48144-.397-.62305-.886-1.01514-1.466-1.17627-.57-.17188-1.397-.25782-2.482-.25782h-6.123V19.02c0 1.4395.183 2.3526.548 2.7393.376.3867 1.235.6015 2.578.6445V23h-9.378v-.5962c1.354-.043 2.218-.2578 2.594-.6445.376-.3867.564-1.2998.564-2.7393V5.13037c0-1.43945-.188-2.35254-.564-2.73926-.376-.38672-1.24-.60156-2.594-.64453v-.59619h17.531zm15.969 11.61771v6.3647c0 1.375.15 2.229.451 2.562.408.4727 1.026.709 1.853.709h.838V23h-9.362v-.5962h.822c.924 0 1.584-.3008 1.982-.9023.215-.333.322-1.1226.322-2.3687V5.01758c0-1.375-.145-2.22901-.435-2.56201-.419-.47266-1.042-.70899-1.869-.70899h-.822v-.59619h8.008c1.955 0 3.497.2041 4.625.61231 1.128.39746 2.078 1.07421 2.852 2.03027.773.95605 1.16 2.08935 1.16 3.3999 0 1.7832-.591 3.23343-1.772 4.35063-1.171 1.1171-2.831 1.6757-4.979 1.6757-.527 0-1.096-.0376-1.708-.1128-.613-.0752-1.268-.1879-1.966-.3383zm0-.9185c.569.1074 1.074.188 1.514.2417.441.0537.817.0806 1.128.0806 1.118 0 2.079-.4297 2.885-1.2891.816-.8701 1.224-1.99266 1.224-3.36766 0-.94532-.193-1.8208-.58-2.62647-.387-.8164-.934-1.42334-1.643-1.8208-.709-.4082-1.515-.6123-2.417-.6123-.548 0-1.252.10205-2.111.30615v9.08788zm34.949 3.835h-8.459l-1.482 3.4482c-.366.8486-.548 1.4824-.548 1.9014 0 .333.155.6284.467.8862.322.2471 1.01.4082 2.062.4834V23h-6.88v-.5962c.913-.1611 1.504-.3706 1.773-.6284.547-.5156 1.154-1.563 1.82-3.1421L473.149.650879h.564l7.606 18.175821c.612 1.4609 1.165 2.4116 1.66 2.852.504.4297 1.203.6714 2.094.7251V23h-8.62v-.5962c.87-.043 1.455-.188 1.756-.435.312-.2471.467-.5479.467-.9024 0-.4726-.215-1.2192-.644-2.2397l-1.322-3.1421zm-.451-1.1924l-3.706-8.83009-3.803 8.83009h7.509zM511.467 23h-9.426v-.5962c1.235-.0215 2.062-.188 2.481-.4995.43-.3115.655-.9561.677-1.9336-3.631 0-6.252-.7627-7.864-2.2881-1.6-1.5254-2.4-3.4321-2.4-5.7202 0-1.7187.472-3.18506 1.418-4.39892.956-1.21387 2.132-2.05176 3.528-2.51368 1.397-.47265 3.169-.70898 5.318-.70898-.022-.90234-.161-1.49853-.419-1.78857-.258-.29004-.548-.48877-.87-.5962-.312-.11816-.935-.18798-1.869-.20947v-.59619h9.426v.59619c-1.268.04297-2.1.23633-2.498.58008-.397.33301-.623 1.00439-.677 2.01416 2.321 0 4.147.25244 5.479.75732 1.332.50489 2.465 1.34278 3.4 2.51368.934 1.17089 1.402 2.62108 1.402 4.35058 0 2.2236-.779 4.1143-2.337 5.6719-1.557 1.5576-4.205 2.3364-7.944 2.3364.033.9668.253 1.6113.661 1.9336.419.3115 1.257.478 2.514.4995V23zm-3.175-4.2217c1.58 0 2.836-.2041 3.771-.6123.945-.4189 1.724-1.1655 2.336-2.2397.623-1.0742.935-2.4009.935-3.98 0-1.4824-.312-2.7339-.935-3.75441-.623-1.03125-1.407-1.72949-2.352-2.09472-.935-.37598-2.186-.56397-3.755-.56397v13.2451zm-3.093 0V5.5332c-1.665 0-2.949.2041-3.851.61231-.903.39746-1.66 1.07959-2.272 2.04638-.602.9668-.903 2.21831-.903 3.75441 0 1.6865.355 3.0884 1.064 4.2056.72 1.1171 1.563 1.8369 2.53 2.1591.966.3116 2.11.4673 3.432.4673zm39.816-14.01853c0-1.31055-.215-2.1377-.645-2.48145-.419-.35449-1.273-.53174-2.562-.53174v-.59619h9.459v.59619c-1.354.04297-2.219.25781-2.595.64453-.376.38672-.564 1.29981-.564 2.73926V19.02c0 1.4395.188 2.3526.564 2.7393.376.3867 1.241.6015 2.595.6445V23h-9.459v-.5962c1.386-.043 2.267-.2578 2.643-.6445.376-.3975.564-1.3106.564-2.7393V6.48389L534.879 19.4712c.011.9346.07 1.563.178 1.8852.118.3116.381.5586.789.7413.419.1826 1.155.2846 2.208.3061V23h-9.427v-.5962c1.354-.043 2.219-.2578 2.595-.6445.376-.3867.564-1.2998.564-2.7393V5.13037c0-1.43945-.188-2.35254-.564-2.73926-.376-.38672-1.241-.60156-2.595-.64453v-.59619h9.427v.59619c-1.365.04297-2.235.25781-2.611.64453-.376.38672-.564 1.29981-.564 2.73926V17.7148l10.136-12.95503zM559.839 23h5.833l7.396-10.2158c.548.0215.994.0322 1.337.0322h.451c.162-.0107.328-.0215.5-.0322v6.3486c0 1.375-.15 2.229-.451 2.562-.408.4727-1.021.709-1.837.709h-.854V23h9.362v-.5962h-.822c-.924 0-1.585-.3008-1.982-.9023-.226-.333-.338-1.1226-.338-2.3687V5.01758c0-1.375.15-2.22901.451-2.56201.419-.47266 1.042-.70899 1.869-.70899h.822v-.59619h-7.96c-2.321 0-4.034.17188-5.14.51563-1.096.333-2.031.95605-2.804 1.86914-.763.90234-1.144 1.98193-1.144 3.23877 0 1.34277.435 2.5083 1.305 3.49657.881.9883 2.24 1.6865 4.077 2.0947l-4.512 6.2681c-1.031 1.4395-1.918 2.3955-2.659 2.8682-.741.4726-1.708.7734-2.9.9023V23zm15.517-11.231c-.204 0-.381.0054-.532.0162h-.37c-2.084 0-3.658-.4512-4.722-1.3536-1.052-.9023-1.579-2.05172-1.579-3.4482 0-1.36426.425-2.4707 1.273-3.31934.86-.85937 1.993-1.28906 3.4-1.28906.623 0 1.466.10205 2.53.30615V11.769z" />
</svg>
