<svg xmlns="http://www.w3.org/2000/svg" viewBox="0 0 797 136">
  <path d="M66.7554 113.921l39.9266-91.3258c1.686-3.7337 2.529-6.5039 2.529-8.3105 0-2.2884-1.746-3.8542-5.239-4.6973V6.69678h27.913V9.5874c-2.831.8431-4.788 1.9572-5.872 3.3423-1.024 1.3851-2.981 5.3898-5.871 12.0141L80.3955 114.553c-1.5055 3.553-2.2583 6.113-2.2583 7.678 0 2.53 1.7163 4.156 5.1489 4.878V130H48.96v-2.891c3.4326-.722 5.1489-2.408 5.1489-5.058 0-1.446-.7829-3.945-2.3486-7.498L11.2915 22.2339c-2.22819-4.9984-3.88427-8.16-4.96826-9.4849-1.08398-1.3248-2.98095-2.3787-5.690916-3.1616V6.69678H30.0806V9.5874c-3.5531.8431-5.3296 2.4089-5.3296 4.6973 0 2.0475.7829 4.8177 2.3486 8.3105l39.6558 91.3258zM220.862 95.4028h-66.033l-10.84 23.3962c-1.024 2.228-1.535 3.794-1.535 4.697 0 1.807 1.776 3.011 5.329 3.613V130h-27.461v-2.891c2.469-.421 4.336-1.324 5.601-2.71 1.325-1.385 3.041-4.396 5.149-9.033l45.166-97.4681c1.084-2.3486 1.626-3.9444 1.626-4.7875 0-1.5658-1.476-2.7401-4.426-3.523V6.69678h29.99V9.5874c-2.951.9635-4.427 2.2282-4.427 3.7939 0 .6625.542 2.168 1.626 4.5166l43.269 93.9451c3.192 6.926 5.3 10.991 6.324 12.195 1.023 1.205 3.252 2.228 6.684 3.071V130h-29.267v-2.891c3.493-.481 5.239-1.806 5.239-3.974 0-.964-.662-2.831-1.987-5.601l-10.027-22.1312zm-5.33-11.7431L187.8 22.7759l-27.641 60.8838h55.373zm74.163 34.5973h78.769c2.53 0 4.306-.392 5.33-1.174 1.084-.783 1.897-2.319 2.439-4.607h2.891v23.305h-2.891c-.542-2.288-1.355-3.824-2.439-4.607-1.024-.783-2.8-1.174-5.33-1.174h-98.733v-2.891c2.349-.602 3.885-1.415 4.607-2.439.783-1.023 1.175-2.8 1.175-5.329V17.356c0-2.5293-.392-4.3059-1.175-5.3296-.782-1.0238-2.318-1.8368-4.607-2.439V6.69678h25.745V9.5874c-2.288.6022-3.824 1.4152-4.607 2.439-.783 1.0237-1.174 2.8003-1.174 5.3296v100.901zm125.561-45.7985v45.7985h79.041c2.529 0 4.306-.392 5.329-1.174 1.084-.783 1.897-2.319 2.439-4.607h2.891v23.305h-2.8c-.602-2.288-1.446-3.824-2.53-4.607-1.023-.783-2.8-1.174-5.329-1.174h-99.004v-2.891c2.349-.602 3.884-1.415 4.607-2.439.783-1.023 1.174-2.8 1.174-5.329V17.356c0-2.5293-.391-4.3059-1.174-5.3296-.783-1.0238-2.319-1.8368-4.607-2.439V6.69678h97.83c2.529 0 4.305-.39144 5.329-1.17432s1.837-2.34863 2.439-4.697265h2.891V24.1309h-2.891c-.542-2.2282-1.355-3.7338-2.439-4.5166-1.024-.7829-2.8-1.1744-5.329-1.1744h-77.867v42.2754h51.038c2.529 0 4.306-.3914 5.33-1.1743 1.084-.7829 1.897-2.3185 2.438-4.6069h2.891v23.3056h-2.891c-.541-2.2884-1.354-3.824-2.438-4.6069-1.024-.7829-2.801-1.1743-5.33-1.1743h-51.038zM545.967 17.356v68.2006c0 8.0697.421 13.7606 1.264 17.0724.844 3.252 2.59 6.083 5.24 8.492 6.443 5.781 18.458 8.671 36.042 8.671 19.151 0 31.707-3.402 37.669-10.207 1.987-2.288 3.312-4.998 3.974-8.13.663-3.1917.994-8.4911.994-15.8984V17.356c0-2.4691-.392-4.2155-1.174-5.2393-.783-1.084-2.319-1.9271-4.607-2.5293V6.69678h24.48V9.5874c-2.289.542-3.824 1.355-4.607 2.439-.783 1.0237-1.175 2.8003-1.175 5.3296v71.0009c0 8.7321-.843 15.3861-2.529 19.9631-3.131 8.19-9.033 14.213-17.705 18.067-8.612 3.854-20.566 5.781-35.862 5.781-22.884 0-38.541-4.426-46.972-13.279-3.433-3.553-5.842-7.588-7.227-12.104-1.325-4.577-1.987-10.7197-1.987-18.4281V17.356c0-2.5293-.392-4.3059-1.175-5.3296-.783-1.084-2.318-1.897-4.607-2.439V6.69678h25.745V9.5874c-2.288.6022-3.824 1.4453-4.607 2.5293-.783 1.0238-1.174 2.7702-1.174 5.2393zm148.596 57.0898v44.8952c0 2.469.391 4.245 1.174 5.329.783 1.024 2.319 1.837 4.607 2.439V130H674.6v-2.891c2.288-.602 3.824-1.415 4.607-2.439.782-1.023 1.174-2.8 1.174-5.329V17.356c0-2.5293-.392-4.3059-1.174-5.3296-.783-1.084-2.319-1.897-4.607-2.439V6.69678h67.658c9.274 0 16.591.51188 21.951 1.53564 5.42.96354 10.117 2.67988 14.092 5.14888 4.095 2.5293 7.407 5.9921 9.936 10.3882 2.891 4.9984 4.336 10.6291 4.336 16.8921 0 9.3946-3.131 17.0728-9.394 23.0347-6.203 5.9017-14.755 9.2741-25.655 10.1172l31.346 48.7795c1.866 3.011 4.576 4.516 8.13 4.516V130h-28.545v-2.891c2.95-.481 4.426-1.324 4.426-2.529 0-.602-1.054-2.559-3.162-5.872l-28.003-44.2622h-47.153zm0-11.6528h49.954c6.805 0 11.923-.271 15.356-.813 3.493-.6022 6.564-1.6561 9.214-3.1616 6.203-3.6133 9.304-9.6656 9.304-18.1568 0-8.5514-3.192-14.6338-9.575-18.247-2.83-1.5658-5.992-2.6197-9.485-3.1617-3.433-.542-8.792-.813-16.079-.813h-48.689V62.793z" />
</svg>
