<svg viewBox="0 0 105 21" xmlns="http://www.w3.org/2000/svg">
<path d="M16.3923 0.259999C17.2323 0.259999 17.9323 0.231999 18.4923 0.176V0.735999C17.5589 0.959999 16.8216 1.772 16.2803 3.172L9.70025 20.14H9.47625H9.25225L2.42025 2.528C1.97225 1.37067 1.32825 0.773332 0.48825 0.735999V0.176C1.23492 0.231999 2.23358 0.259999 3.48425 0.259999C5.08958 0.259999 6.28425 0.231999 7.06825 0.176V0.735999C6.35892 0.773332 5.84558 0.866665 5.52825 1.016C5.22958 1.14667 5.08025 1.39867 5.08025 1.772C5.08025 2.08933 5.19225 2.528 5.41625 3.088L10.4843 16.556L15.0482 4.712C15.4216 3.704 15.6083 2.93867 15.6083 2.416C15.6083 1.83733 15.4029 1.41733 14.9923 1.156C14.6003 0.894666 13.9936 0.754666 13.1723 0.735999V0.176C14.2363 0.231999 15.3096 0.259999 16.3923 0.259999ZM32.3643 17.648C32.8123 18.8053 33.4563 19.4027 34.2963 19.44V20C33.5496 19.944 32.5509 19.916 31.3003 19.916C29.6949 19.916 28.5003 19.944 27.7163 20V19.44C28.4256 19.4027 28.9296 19.3187 29.2283 19.188C29.5456 19.0387 29.7043 18.7773 29.7043 18.404C29.7043 18.0867 29.5923 17.648 29.3683 17.088L27.6603 12.496H20.8843L19.7363 15.464C19.3629 16.472 19.1763 17.2373 19.1763 17.76C19.1763 18.3387 19.3723 18.7587 19.7643 19.02C20.1749 19.2813 20.7909 19.4213 21.6123 19.44V20C20.5483 19.944 19.4749 19.916 18.3923 19.916C17.5523 19.916 16.8523 19.944 16.2923 20V19.44C17.2256 19.216 17.9629 18.404 18.5043 17.004L25.0843 0.0359983H25.5323L32.3643 17.648ZM27.4363 11.936L24.3003 3.564L21.1083 11.936H27.4363ZM41.8941 0.735999C41.2221 0.773332 40.7275 0.847999 40.4101 0.96C40.1115 1.072 39.9061 1.28667 39.7941 1.604C39.6821 1.92133 39.6261 2.43467 39.6261 3.144V17.032C39.6261 17.7413 39.6821 18.2547 39.7941 18.572C39.9061 18.8893 40.1115 19.104 40.4101 19.216C40.7275 19.3093 41.2221 19.356 41.8941 19.356H43.9381C45.0955 19.356 45.9728 19.1973 46.5701 18.88C47.1861 18.544 47.6341 18.012 47.9141 17.284C48.1941 16.556 48.3995 15.5013 48.5301 14.12H49.1741C49.1181 14.6987 49.0901 15.464 49.0901 16.416C49.0901 17.48 49.1555 18.6747 49.2861 20C48.0168 19.944 45.8795 19.916 42.8741 19.916C39.2901 19.916 36.5835 19.944 34.7541 20V19.44C35.4261 19.4027 35.9115 19.328 36.2101 19.216C36.5275 19.104 36.7421 18.8893 36.8541 18.572C36.9661 18.2547 37.0221 17.7413 37.0221 17.032V3.144C37.0221 2.43467 36.9661 1.92133 36.8541 1.604C36.7421 1.28667 36.5275 1.072 36.2101 0.96C35.9115 0.847999 35.4261 0.773332 34.7541 0.735999V0.176C35.5381 0.231999 36.7328 0.259999 38.3381 0.259999C39.8315 0.259999 41.0168 0.231999 41.8941 0.176V0.735999ZM65.5511 16.416C65.5511 17.48 65.6164 18.6747 65.7471 20C64.4777 19.944 62.3404 19.916 59.3351 19.916C55.7511 19.916 53.0444 19.944 51.2151 20V19.44C51.8871 19.4027 52.3724 19.328 52.6711 19.216C52.9884 19.104 53.2031 18.8893 53.3151 18.572C53.4271 18.2547 53.4831 17.7413 53.4831 17.032V3.144C53.4831 2.43467 53.4271 1.92133 53.3151 1.604C53.2031 1.28667 52.9884 1.072 52.6711 0.96C52.3724 0.847999 51.8871 0.773332 51.2151 0.735999V0.176C53.0444 0.231999 55.7511 0.259999 59.3351 0.259999C62.0791 0.259999 64.0297 0.231999 65.1871 0.176C65.0564 1.408 64.9911 2.50933 64.9911 3.48C64.9911 4.208 65.0191 4.78667 65.0751 5.216H64.4311C64.3004 4.00267 64.1324 3.10667 63.9271 2.528C63.7217 1.93067 63.3764 1.50133 62.8911 1.24C62.4057 0.959999 61.6684 0.819998 60.6791 0.819998H58.3551C57.6831 0.819998 57.1884 0.875999 56.8711 0.987999C56.5724 1.08133 56.3671 1.28667 56.2551 1.604C56.1431 1.92133 56.0871 2.43467 56.0871 3.144V9.752H57.9351C58.5884 9.752 59.0924 9.60267 59.4471 9.304C59.8017 8.98667 60.0351 8.62267 60.1471 8.212C60.2777 7.78267 60.3804 7.25067 60.4551 6.616L60.5391 6.056H61.1831C61.1271 6.84 61.0991 7.71733 61.0991 8.688V10.032C61.0991 10.984 61.1551 12.3093 61.2671 14.008H60.6231C60.6044 13.8773 60.5484 13.4293 60.4551 12.664C60.3617 11.88 60.1004 11.292 59.6711 10.9C59.2604 10.508 58.6817 10.312 57.9351 10.312H56.0871V17.032C56.0871 17.7413 56.1431 18.2547 56.2551 18.572C56.3671 18.8893 56.5724 19.104 56.8711 19.216C57.1884 19.3093 57.6831 19.356 58.3551 19.356H60.3991C61.5564 19.356 62.4337 19.2067 63.0311 18.908C63.6471 18.5907 64.0951 18.096 64.3751 17.424C64.6551 16.7333 64.8604 15.7253 64.9911 14.4H65.6351C65.5791 14.904 65.5511 15.576 65.5511 16.416ZM85.4416 0.735999C84.7882 0.773332 84.3029 0.875999 83.9856 1.044C83.6682 1.19333 83.4536 1.45467 83.3416 1.828C83.2296 2.18267 83.1736 2.71467 83.1736 3.424V11.852C83.1736 13.196 83.0802 14.3533 82.8936 15.324C82.7256 16.276 82.4362 17.0973 82.0256 17.788C81.5589 18.5907 80.8682 19.2253 79.9536 19.692C79.0576 20.1587 78.0402 20.392 76.9016 20.392C74.8482 20.392 73.2802 19.888 72.1976 18.88C71.3762 18.1147 70.8256 17.2467 70.5456 16.276C70.2656 15.3053 70.1256 13.8587 70.1256 11.936V3.144C70.1256 2.43467 70.0696 1.92133 69.9576 1.604C69.8456 1.28667 69.6309 1.072 69.3136 0.96C69.0149 0.847999 68.5296 0.773332 67.8576 0.735999V0.176C68.6416 0.231999 69.8362 0.259999 71.4416 0.259999C72.9536 0.259999 74.1389 0.231999 74.9976 0.176V0.735999C74.3256 0.773332 73.8309 0.847999 73.5136 0.96C73.2149 1.072 73.0096 1.28667 72.8976 1.604C72.7856 1.92133 72.7296 2.43467 72.7296 3.144V12.412C72.7296 13.9053 72.8322 15.1467 73.0376 16.136C73.2429 17.1253 73.6629 17.9187 74.2976 18.516C74.9509 19.1133 75.9029 19.412 77.1536 19.412C79.1322 19.412 80.5229 18.7773 81.3256 17.508C82.1282 16.2387 82.5296 14.456 82.5296 12.16V3.424C82.5296 2.416 82.3429 1.72533 81.9696 1.352C81.6149 0.978666 80.9522 0.773332 79.9816 0.735999V0.176C80.6536 0.231999 81.6056 0.259999 82.8376 0.259999C83.9576 0.259999 84.8256 0.231999 85.4416 0.176V0.735999ZM104.668 18.6C104.238 19.2347 103.809 19.692 103.38 19.972C102.95 20.252 102.381 20.392 101.672 20.392C100.906 20.392 100.272 20.168 99.7675 19.72C99.2822 19.272 98.9182 18.488 98.6755 17.368L98.0595 14.568C97.8355 13.5973 97.6208 12.8507 97.4155 12.328C97.2288 11.8053 96.9395 11.3853 96.5475 11.068C96.1555 10.7507 95.6048 10.592 94.8955 10.592H92.2355V17.032C92.2355 17.7413 92.2915 18.2547 92.4035 18.572C92.5155 18.8893 92.7208 19.104 93.0195 19.216C93.3368 19.328 93.8315 19.4027 94.5035 19.44V20C93.6448 19.944 92.4595 19.916 90.9475 19.916C89.3422 19.916 88.1475 19.944 87.3635 20V19.44C88.0355 19.4027 88.5208 19.328 88.8195 19.216C89.1368 19.104 89.3515 18.8893 89.4635 18.572C89.5755 18.2547 89.6315 17.7413 89.6315 17.032V3.144C89.6315 2.43467 89.5755 1.92133 89.4635 1.604C89.3515 1.28667 89.1368 1.072 88.8195 0.96C88.5208 0.847999 88.0355 0.773332 87.3635 0.735999V0.176C88.1475 0.231999 89.2862 0.259999 90.7795 0.259999L93.8035 0.231999C94.1582 0.213333 94.5595 0.204 95.0075 0.204C97.1728 0.204 98.8342 0.661333 99.9915 1.576C101.168 2.472 101.756 3.63867 101.756 5.076C101.756 5.804 101.578 6.54133 101.224 7.288C100.888 8.016 100.309 8.67867 99.4875 9.276C98.6848 9.85467 97.6302 10.2467 96.3235 10.452L96.6595 10.508C97.8915 10.7133 98.7875 11.0867 99.3475 11.628C99.9075 12.1693 100.318 13.028 100.579 14.204L101.28 17.06C101.466 17.9187 101.662 18.516 101.868 18.852C102.073 19.188 102.353 19.356 102.708 19.356C103.025 19.356 103.286 19.272 103.492 19.104C103.716 18.936 103.968 18.6653 104.248 18.292L104.668 18.6ZM94.3075 0.735999C93.7288 0.735999 93.2902 0.801332 92.9915 0.931998C92.7115 1.06267 92.5155 1.296 92.4035 1.632C92.2915 1.968 92.2355 2.472 92.2355 3.144V10.032H94.1115C95.9595 10.032 97.2288 9.62133 97.9195 8.8C98.6102 7.97867 98.9555 6.84 98.9555 5.384C98.9555 3.85333 98.5915 2.696 97.8635 1.912C97.1355 1.128 95.9502 0.735999 94.3075 0.735999Z" />
</svg>
