<svg viewBox="0 0 84 14" xmlns="http://www.w3.org/2000/svg">
<path d="M11.44 9.436C11.44 10.196 11.748 10.576 12.364 10.576C12.94 10.576 13.652 10.236 14.5 9.556C15.428 8.82 16.064 8.044 16.408 7.228C16.8 6.308 16.996 5.524 16.996 4.876C16.996 4.228 16.864 3.74 16.6 3.412C16.344 3.084 15.988 2.92 15.532 2.92C15.428 2.92 15.32 2.928 15.208 2.944C15.016 2.992 14.872 3.016 14.776 3.016C14.688 3.016 14.644 2.992 14.644 2.944C14.644 2.872 14.716 2.804 14.86 2.74C15.012 2.676 15.124 2.644 15.196 2.644C15.276 2.644 15.34 2.644 15.388 2.644C15.436 2.644 15.492 2.644 15.556 2.644C16.012 2.644 16.428 2.824 16.804 3.184C17.188 3.544 17.436 4.072 17.548 4.768C17.572 4.936 17.584 5.108 17.584 5.284C17.584 5.876 17.444 6.548 17.164 7.3C16.772 8.292 16.096 9.136 15.136 9.832C14.184 10.528 13.308 10.876 12.508 10.876C11.676 10.876 11.164 10.492 10.972 9.724C10.916 9.524 10.888 9.252 10.888 8.908C10.888 8.564 10.972 8.116 11.14 7.564C10.708 8.284 10.148 9.064 9.46 9.904C9.084 10.352 8.7 10.724 8.308 11.02C7.892 11.332 7.54 11.488 7.252 11.488C6.684 11.488 6.4 11.144 6.4 10.456C6.4 9.648 6.924 8 7.972 5.512C8.628 3.928 8.956 2.74 8.956 1.948C8.956 1.436 8.8 1.084 8.488 0.891999C8.184 0.691999 7.82 0.592 7.396 0.592C7.212 0.592 7.02 0.612 6.82 0.651999C5.404 0.94 4.148 1.704 3.052 2.944C2.508 3.568 2.132 4.168 1.924 4.744C1.716 5.312 1.596 5.736 1.564 6.016C1.54 6.288 1.528 6.516 1.528 6.7C1.528 6.876 1.56 7.08 1.624 7.312C1.696 7.544 1.816 7.76 1.984 7.96C2.296 8.32 2.732 8.5 3.292 8.5C4.22 8.5 4.956 8.016 5.5 7.048C5.78 6.552 5.92 6.104 5.92 5.704C5.92 5.048 5.628 4.72 5.044 4.72C4.948 4.72 4.828 4.732 4.684 4.756C4.54 4.78 4.472 4.764 4.48 4.708C4.488 4.652 4.596 4.592 4.804 4.528C5.012 4.464 5.22 4.432 5.428 4.432C5.844 4.432 6.148 4.592 6.34 4.912C6.46 5.112 6.52 5.348 6.52 5.62C6.52 5.892 6.444 6.208 6.292 6.568C5.884 7.504 5.152 8.192 4.096 8.632C3.816 8.752 3.556 8.812 3.316 8.812C2.532 8.812 1.908 8.532 1.444 7.972C1.116 7.588 0.908 7.092 0.82 6.484C0.804 6.364 0.796 6.24 0.796 6.112C0.796 5.6 0.924 5.048 1.18 4.456C1.444 3.856 1.8 3.3 2.248 2.788C2.696 2.276 3.184 1.848 3.712 1.504C4.24 1.16 4.796 0.872 5.38 0.64C5.988 0.408 6.552 0.292 7.072 0.292C7.592 0.292 8.064 0.372 8.488 0.532C9.256 0.868 9.64 1.512 9.64 2.464C9.64 3.248 9.372 4.248 8.836 5.464C8.468 6.288 8.116 7.172 7.78 8.116C7.3 9.46 7.06 10.336 7.06 10.744C7.06 11.032 7.16 11.176 7.36 11.176C7.464 11.176 7.588 11.128 7.732 11.032C8.164 10.776 8.636 10.292 9.148 9.58C9.66 8.868 10.192 8.04 10.744 7.096C11.296 6.152 11.688 5.52 11.92 5.2C12.152 4.88 12.352 4.72 12.52 4.72C12.56 4.72 12.6 4.728 12.64 4.744C12.744 4.8 12.796 4.908 12.796 5.068C12.796 5.228 12.772 5.372 12.724 5.5C12.684 5.628 12.48 6.14 12.112 7.036C11.744 7.924 11.54 8.512 11.5 8.8C11.46 9.08 11.44 9.292 11.44 9.436ZM18.337 8.152C18.225 8.424 18.169 8.728 18.169 9.064C18.169 9.288 18.217 9.468 18.313 9.604C18.417 9.732 18.561 9.796 18.745 9.796C19.473 9.796 20.133 9.112 20.725 7.744C20.781 7.616 20.849 7.56 20.929 7.576C20.961 7.584 20.977 7.604 20.977 7.636C20.977 7.668 20.885 7.88 20.701 8.272C20.525 8.656 20.345 8.968 20.161 9.208C19.753 9.768 19.249 10.048 18.649 10.048C18.329 10.048 18.057 9.944 17.833 9.736C17.609 9.528 17.497 9.244 17.497 8.884C17.497 8.524 17.581 8.144 17.749 7.744C17.925 7.336 18.161 6.96 18.457 6.616C18.753 6.264 19.093 6.008 19.477 5.848C19.661 5.768 19.837 5.728 20.005 5.728C20.173 5.728 20.329 5.776 20.473 5.872C20.609 5.984 20.677 6.108 20.677 6.244C20.677 6.724 20.389 7.184 19.813 7.624C19.637 7.76 19.389 7.884 19.069 7.996C18.749 8.1 18.505 8.152 18.337 8.152ZM20.353 6.232C20.353 6.072 20.289 5.992 20.161 5.992C19.937 5.992 19.597 6.268 19.141 6.82C18.869 7.156 18.629 7.532 18.421 7.948C18.557 7.948 18.753 7.9 19.009 7.804C19.273 7.708 19.501 7.58 19.693 7.42C20.133 7.044 20.353 6.648 20.353 6.232ZM23.2941 9.304C23.2941 9.56 23.3981 9.688 23.6061 9.688C23.9821 9.688 24.4821 9.06 25.1061 7.804C25.1301 7.756 25.1501 7.708 25.1661 7.66C25.1901 7.612 25.2221 7.58 25.2621 7.564C25.3101 7.548 25.3421 7.56 25.3581 7.6C25.3741 7.632 25.3661 7.688 25.3341 7.768C24.6941 9.256 24.0461 10 23.3901 10C23.1741 10 23.0021 9.904 22.8741 9.712C22.7461 9.52 22.6821 9.332 22.6821 9.148C22.6821 8.956 22.7021 8.78 22.7421 8.62C22.2781 9.388 21.8781 9.824 21.5421 9.928C21.4461 9.968 21.3501 9.988 21.2541 9.988C21.1661 9.988 21.0781 9.976 20.9901 9.952C20.5981 9.848 20.4021 9.536 20.4021 9.016C20.4021 8.664 20.4901 8.276 20.6661 7.852C20.8501 7.42 21.1061 7.008 21.4341 6.616C21.7621 6.224 22.1581 5.96 22.6221 5.824C22.7901 5.768 22.9861 5.74 23.2101 5.74C23.4421 5.74 23.6981 5.812 23.9781 5.956C24.5221 4.932 24.9861 3.984 25.3701 3.112C25.4821 2.848 25.5901 2.68 25.6941 2.608C25.8061 2.528 25.9061 2.488 25.9941 2.488C26.0901 2.488 26.1461 2.488 26.1621 2.488C26.1861 2.488 26.2621 2.5 26.3901 2.524C26.5261 2.54 26.6301 2.544 26.7021 2.536C26.5181 2.704 26.0301 3.52 25.2381 4.984C24.2301 6.856 23.6221 8.104 23.4141 8.728C23.3341 8.96 23.2941 9.152 23.2941 9.304ZM23.8821 6.148C23.7781 6.044 23.6301 5.992 23.4381 5.992C23.2541 5.992 22.9941 6.132 22.6581 6.412C22.1221 6.86 21.6781 7.412 21.3261 8.068C21.0941 8.5 20.9781 8.856 20.9781 9.136C20.9781 9.264 21.0021 9.38 21.0501 9.484C21.1061 9.588 21.1901 9.64 21.3021 9.64C21.5741 9.64 21.9101 9.36 22.3101 8.8C22.7101 8.24 23.2341 7.356 23.8821 6.148ZM27.7004 9.304C27.7004 9.56 27.8044 9.688 28.0124 9.688C28.3884 9.688 28.8884 9.06 29.5124 7.804C29.5364 7.756 29.5564 7.708 29.5724 7.66C29.5964 7.612 29.6284 7.58 29.6684 7.564C29.7164 7.548 29.7484 7.56 29.7644 7.6C29.7804 7.632 29.7724 7.688 29.7404 7.768C29.1004 9.256 28.4524 10 27.7964 10C27.5804 10 27.4084 9.904 27.2804 9.712C27.1524 9.52 27.0884 9.332 27.0884 9.148C27.0884 8.956 27.1084 8.78 27.1484 8.62C26.6844 9.388 26.2844 9.824 25.9484 9.928C25.8524 9.968 25.7564 9.988 25.6604 9.988C25.5724 9.988 25.4844 9.976 25.3964 9.952C25.0044 9.848 24.8084 9.536 24.8084 9.016C24.8084 8.664 24.8964 8.276 25.0724 7.852C25.2564 7.42 25.5124 7.008 25.8404 6.616C26.1684 6.224 26.5644 5.96 27.0284 5.824C27.1964 5.768 27.3924 5.74 27.6164 5.74C27.8484 5.74 28.1044 5.812 28.3844 5.956C28.9284 4.932 29.3924 3.984 29.7764 3.112C29.8884 2.848 29.9964 2.68 30.1004 2.608C30.2124 2.528 30.3124 2.488 30.4004 2.488C30.4964 2.488 30.5524 2.488 30.5684 2.488C30.5924 2.488 30.6684 2.5 30.7964 2.524C30.9324 2.54 31.0364 2.544 31.1084 2.536C30.9244 2.704 30.4364 3.52 29.6444 4.984C28.6364 6.856 28.0284 8.104 27.8204 8.728C27.7404 8.96 27.7004 9.152 27.7004 9.304ZM28.2884 6.148C28.1844 6.044 28.0364 5.992 27.8444 5.992C27.6604 5.992 27.4004 6.132 27.0644 6.412C26.5284 6.86 26.0844 7.412 25.7324 8.068C25.5004 8.5 25.3844 8.856 25.3844 9.136C25.3844 9.264 25.4084 9.38 25.4564 9.484C25.5124 9.588 25.5964 9.64 25.7084 9.64C25.9804 9.64 26.3164 9.36 26.7164 8.8C27.1164 8.24 27.6404 7.356 28.2884 6.148ZM31.2186 5.332C31.1066 5.428 30.9826 5.476 30.8466 5.476C30.7106 5.476 30.6026 5.428 30.5226 5.332C30.4426 5.236 30.4106 5.12 30.4266 4.984C30.4506 4.848 30.5186 4.732 30.6306 4.636C30.7426 4.54 30.8666 4.492 31.0026 4.492C31.1386 4.492 31.2466 4.54 31.3266 4.636C31.4146 4.732 31.4466 4.848 31.4226 4.984C31.3986 5.12 31.3306 5.236 31.2186 5.332ZM30.0426 9.736C30.1946 9.736 30.3546 9.66 30.5226 9.508C30.8186 9.212 31.1946 8.608 31.6506 7.696C31.7066 7.576 31.7626 7.54 31.8186 7.588C31.8346 7.604 31.8426 7.632 31.8426 7.672C31.8426 7.704 31.8106 7.792 31.7466 7.936C31.6826 8.072 31.6226 8.196 31.5666 8.308C31.5186 8.42 31.4186 8.604 31.2666 8.86C31.1226 9.108 30.9906 9.3 30.8706 9.436C30.5426 9.812 30.2306 10 29.9346 10C29.6466 10 29.4386 9.912 29.3106 9.736C29.1826 9.56 29.1186 9.364 29.1186 9.148C29.1186 8.932 29.1706 8.696 29.2746 8.44L30.0426 6.484C30.0586 6.436 30.0666 6.372 30.0666 6.292C30.0666 6.212 30.0186 6.108 29.9226 5.98L30.5826 5.968C30.7666 5.968 30.8746 6.004 30.9066 6.076C30.9386 6.14 30.9146 6.244 30.8346 6.388L29.8746 8.632C29.7386 8.928 29.6706 9.18 29.6706 9.388C29.6706 9.62 29.7946 9.736 30.0426 9.736ZM35.2846 6.064C34.3006 7.792 33.8086 8.92 33.8086 9.448C33.8086 9.656 33.8846 9.76 34.0366 9.76C34.4446 9.76 34.9926 9.068 35.6806 7.684C35.7286 7.572 35.7766 7.528 35.8246 7.552C35.8726 7.576 35.8966 7.608 35.8966 7.648C35.8966 7.688 35.8806 7.736 35.8486 7.792C35.4246 8.648 35.0646 9.24 34.7686 9.568C34.4806 9.888 34.1886 10.048 33.8926 10.048C33.6046 10.048 33.3846 9.936 33.2326 9.712C33.1526 9.608 33.1126 9.468 33.1126 9.292C33.1126 9.108 33.1526 8.888 33.2326 8.632C33.3126 8.376 33.5326 7.96 33.8926 7.384C33.9806 7.24 34.0246 7.128 34.0246 7.048C34.0246 6.96 33.9566 6.916 33.8206 6.916C33.6846 6.916 33.4246 7.096 33.0406 7.456C32.4646 7.984 31.9086 8.776 31.3726 9.832C31.3246 9.912 31.2686 9.964 31.2046 9.988C31.1486 10.004 31.0326 10.016 30.8566 10.024C30.6806 10.032 30.5646 10.052 30.5086 10.084C30.6366 9.828 30.8886 9.304 31.2646 8.512C31.9366 7.112 32.3766 6.312 32.5846 6.112C32.6806 6.016 32.8126 5.968 32.9806 5.968C33.0126 5.968 33.0926 5.98 33.2206 6.004C33.3566 6.028 33.4566 6.032 33.5206 6.016C33.2246 6.176 32.7406 6.928 32.0686 8.272C32.4446 7.808 32.7846 7.44 33.0886 7.168C33.4006 6.888 33.7726 6.632 34.2046 6.4C34.6366 6.16 34.9526 6.04 35.1526 6.04C35.2006 6.04 35.2446 6.048 35.2846 6.064ZM34.8521 13.792C34.1001 13.792 33.7241 13.484 33.7241 12.868C33.7241 12.356 34.0721 11.896 34.7681 11.488C35.3601 11.144 36.1161 10.82 37.0361 10.516C37.4601 10.38 37.7681 10.272 37.9601 10.192C38.1681 9.584 38.2721 8.92 38.2721 8.2C38.2721 8.056 38.2641 7.948 38.2481 7.876C38.0241 8.332 37.7161 8.8 37.3241 9.28C36.8601 9.856 36.4001 10.08 35.9441 9.952C35.5281 9.776 35.3201 9.432 35.3201 8.92C35.3201 8.232 35.6641 7.476 36.3521 6.652C36.7281 6.204 37.1681 5.92 37.6721 5.8C37.8081 5.76 37.9441 5.74 38.0801 5.74C38.4401 5.74 38.7921 5.86 39.1361 6.1C39.2641 6.204 39.3281 6.292 39.3281 6.364C39.3281 6.436 39.3041 6.508 39.2561 6.58C39.2081 6.644 39.1561 6.652 39.1001 6.604C39.0521 6.548 39.0201 6.496 39.0041 6.448C38.9001 6.152 38.7321 6.004 38.5001 6.004C38.0761 6.004 37.6001 6.3 37.0721 6.892C36.7761 7.228 36.5201 7.588 36.3041 7.972C36.0401 8.452 35.9081 8.824 35.9081 9.088C35.9081 9.344 35.9881 9.516 36.1481 9.604C36.2041 9.628 36.2601 9.64 36.3161 9.64C36.5001 9.64 36.7281 9.516 37.0001 9.268C37.2801 9.012 37.5361 8.692 37.7681 8.308C38.0081 7.916 38.1601 7.612 38.2241 7.396C38.2881 7.18 38.3641 7.044 38.4521 6.988C38.5481 6.932 38.6521 6.9 38.7641 6.892C38.8761 6.884 38.9521 6.864 38.9921 6.832C39.0561 7.192 39.0881 7.616 39.0881 8.104C39.0881 8.584 39.0041 9.132 38.8361 9.748C39.2041 9.484 39.4641 9.248 39.6161 9.04C39.7761 8.832 39.9001 8.644 39.9881 8.476C40.0841 8.308 40.1681 8.144 40.2401 7.984C40.3121 7.816 40.3601 7.708 40.3841 7.66C40.4081 7.612 40.4481 7.584 40.5041 7.576C40.5601 7.56 40.5881 7.584 40.5881 7.648C40.5881 7.688 40.5761 7.736 40.5521 7.792C40.2001 8.52 39.9041 9.048 39.6641 9.376C39.4321 9.696 39.1121 9.952 38.7041 10.144C38.5121 10.688 38.2321 11.228 37.8641 11.764C37.5041 12.3 37.0481 12.772 36.4961 13.18C35.9441 13.588 35.3961 13.792 34.8521 13.792ZM33.9761 13.096C33.9761 13.4 34.1721 13.552 34.5641 13.552C34.7961 13.552 35.0561 13.484 35.3441 13.348C35.6401 13.212 35.8841 13.072 36.0761 12.928C36.4041 12.664 36.7641 12.272 37.1561 11.752C37.4521 11.336 37.6801 10.932 37.8401 10.54L37.4201 10.684C36.1721 11.116 35.2921 11.5 34.7801 11.836C34.4041 12.084 34.1561 12.4 34.0361 12.784C33.9961 12.904 33.9761 13.008 33.9761 13.096ZM47.0848 6.736C47.0848 7.088 46.9928 7.476 46.8088 7.9C46.6248 8.324 46.3688 8.732 46.0408 9.124C45.7208 9.516 45.3288 9.784 44.8648 9.928C44.6888 9.976 44.4848 10 44.2528 10C44.0288 10 43.7808 9.928 43.5088 9.784L42.3688 12.628C42.2488 12.884 42.1368 13.052 42.0328 13.132C41.9288 13.212 41.8288 13.252 41.7328 13.252C41.6368 13.252 41.5808 13.252 41.5648 13.252C41.5408 13.252 41.4688 13.24 41.3488 13.216C41.2208 13.192 41.1248 13.184 41.0608 13.192C41.2368 13.024 41.6848 12.224 42.4048 10.792C43.1168 9.368 43.5208 8.408 43.6168 7.912C43.5288 8.04 43.4448 8.108 43.3648 8.116C43.3168 8.116 43.3168 8.072 43.3648 7.984C43.4128 7.888 43.4928 7.708 43.6048 7.444C43.7488 7.1 43.8208 6.784 43.8208 6.496C43.8208 6.2 43.7648 6.028 43.6528 5.98C44.1328 5.9 44.4128 5.864 44.4928 5.872C44.5728 5.872 44.6208 5.904 44.6368 5.968C44.6608 6.032 44.6728 6.104 44.6728 6.184C44.6728 6.672 44.5608 7.216 44.3368 7.816L44.5768 7.432C44.8648 6.968 45.0728 6.668 45.2008 6.532C45.3368 6.396 45.4808 6.256 45.6328 6.112C45.8648 5.888 46.0888 5.776 46.3048 5.776C46.3688 5.776 46.4288 5.784 46.4848 5.8C46.8848 5.904 47.0848 6.216 47.0848 6.736ZM46.5088 6.616C46.5088 6.488 46.4808 6.372 46.4248 6.268C46.3768 6.156 46.2968 6.1 46.1848 6.1C45.9048 6.1 45.5768 6.36 45.2008 6.88C44.8328 7.4 44.3008 8.308 43.6048 9.604C43.7088 9.708 43.8528 9.76 44.0368 9.76C44.2208 9.76 44.4808 9.62 44.8168 9.34C45.3528 8.892 45.8008 8.336 46.1608 7.672C46.3928 7.24 46.5088 6.888 46.5088 6.616ZM49.7 5.8C50.284 5.8 50.576 6.168 50.576 6.904C50.576 7.24 50.488 7.6 50.312 7.984C50.088 8.504 49.752 8.976 49.304 9.4C49.408 9.6 49.596 9.7 49.868 9.7C50.084 9.7 50.288 9.592 50.48 9.376C50.72 9.128 50.892 8.912 50.996 8.728C51.1 8.536 51.176 8.396 51.224 8.308C51.272 8.22 51.332 8.096 51.404 7.936C51.484 7.768 51.532 7.668 51.548 7.636C51.564 7.596 51.592 7.576 51.632 7.576C51.712 7.568 51.752 7.596 51.752 7.66C51.752 7.684 51.744 7.712 51.728 7.744L51.656 7.912C51.608 8.024 51.572 8.104 51.548 8.152C51.524 8.2 51.48 8.288 51.416 8.416C51.36 8.536 51.308 8.632 51.26 8.704C51.22 8.776 51.16 8.872 51.08 8.992C51.008 9.112 50.94 9.208 50.876 9.28C50.82 9.352 50.748 9.432 50.66 9.52C50.572 9.608 50.488 9.676 50.408 9.724C50.208 9.844 50.02 9.904 49.844 9.904C49.516 9.904 49.26 9.8 49.076 9.592C48.708 9.864 48.368 10 48.056 10C47.472 10 47.18 9.632 47.18 8.896C47.18 8.56 47.268 8.2 47.444 7.816C47.684 7.256 48.02 6.78 48.452 6.388C48.892 5.996 49.308 5.8 49.7 5.8ZM49.832 6.172C49.616 6.172 49.36 6.316 49.064 6.604C48.768 6.892 48.504 7.284 48.272 7.78C47.992 8.356 47.852 8.828 47.852 9.196C47.852 9.564 47.992 9.748 48.272 9.748C48.472 9.748 48.696 9.64 48.944 9.424C48.816 9.24 48.752 9.044 48.752 8.836C48.768 8.492 48.908 8.32 49.172 8.32C49.276 8.32 49.36 8.356 49.424 8.428C49.496 8.5 49.532 8.568 49.532 8.632C49.532 8.688 49.524 8.748 49.508 8.812C49.644 8.612 49.8 8.328 49.976 7.96C50.176 7.552 50.276 7.152 50.276 6.76C50.276 6.368 50.128 6.172 49.832 6.172ZM52.1956 7.684C52.1876 7.716 52.1516 7.828 52.0876 8.02C52.0236 8.204 51.9676 8.384 51.9196 8.56C51.8796 8.728 51.8596 8.9 51.8596 9.076C51.8596 9.244 51.8996 9.404 51.9796 9.556C52.0596 9.7 52.1876 9.772 52.3636 9.772C52.6516 9.772 52.9316 9.58 53.2036 9.196C53.4756 8.804 53.7636 8.308 54.0676 7.708C54.1316 7.596 54.1916 7.552 54.2476 7.576C54.2876 7.608 54.2956 7.652 54.2716 7.708C54.2476 7.756 54.1956 7.868 54.1156 8.044C54.0436 8.212 53.9876 8.332 53.9476 8.404C53.9156 8.468 53.8516 8.588 53.7556 8.764C53.6676 8.932 53.5876 9.06 53.5156 9.148C53.4516 9.228 53.3596 9.336 53.2396 9.472C53.1276 9.6 53.0196 9.696 52.9156 9.76C52.6356 9.936 52.3716 10.024 52.1236 10.024C51.8756 10.024 51.6836 9.972 51.5476 9.868C51.4116 9.756 51.3276 9.64 51.2956 9.52C51.2716 9.392 51.2596 9.28 51.2596 9.184C51.2596 9.088 51.2636 8.964 51.2716 8.812C51.2956 8.556 51.3436 8.308 51.4156 8.068C51.4956 7.828 51.5396 7.692 51.5476 7.66C51.7316 6.996 51.9916 6.272 52.3276 5.488C52.6716 4.704 52.9596 4.116 53.1916 3.724C53.4316 3.324 53.6196 3.052 53.7556 2.908C54.0276 2.62 54.2956 2.476 54.5596 2.476C54.7436 2.476 54.8676 2.608 54.9316 2.872C54.9396 2.92 54.9436 2.98 54.9436 3.052C54.9436 3.324 54.8476 3.668 54.6556 4.084C53.9676 5.612 53.1476 6.812 52.1956 7.684ZM52.2916 7.3C52.6996 6.884 53.1036 6.36 53.5036 5.728C53.9036 5.096 54.1956 4.56 54.3796 4.12C54.5716 3.672 54.6676 3.368 54.6676 3.208C54.6676 3.048 54.6396 2.968 54.5836 2.968C54.5036 2.968 54.3516 3.128 54.1276 3.448C53.9036 3.76 53.5996 4.328 53.2156 5.152C52.8396 5.968 52.5316 6.684 52.2916 7.3ZM52.4225 13.792C52.0705 13.792 51.7985 13.716 51.6065 13.564C51.4145 13.42 51.3185 13.244 51.3185 13.036C51.3185 12.828 51.3785 12.592 51.4985 12.328C51.7065 11.92 52.0825 11.592 52.6265 11.344C53.0345 11.152 53.5745 10.972 54.2465 10.804C54.9185 10.644 55.3505 10.536 55.5425 10.48C55.8305 9.976 56.1745 9.076 56.5745 7.78C56.1105 8.596 55.7225 9.168 55.4105 9.496C55.0985 9.824 54.7825 9.988 54.4625 9.988C54.0305 9.988 53.7785 9.808 53.7065 9.448C53.6745 9.392 53.6665 9.308 53.6825 9.196C53.6985 9.084 53.7065 9.004 53.7065 8.956C53.7145 8.908 53.7425 8.832 53.7905 8.728C53.8385 8.616 53.8705 8.536 53.8865 8.488C53.9745 8.304 54.0505 8.16 54.1145 8.056C53.9865 8.056 53.9505 7.992 54.0065 7.864L54.2225 7.444C54.4945 6.924 54.7185 6.484 54.8945 6.124C54.9745 5.956 55.1305 5.872 55.3625 5.872H56.0945C56.0785 5.888 56.0385 5.92 55.9745 5.968C55.8305 6.064 55.7225 6.176 55.6505 6.304C55.3625 6.8 55.0025 7.508 54.5705 8.428C54.3945 8.804 54.3065 9.08 54.3065 9.256C54.3065 9.432 54.3345 9.556 54.3905 9.628C54.4545 9.7 54.5385 9.736 54.6425 9.736C54.7945 9.736 55.0065 9.576 55.2785 9.256C55.8465 8.592 56.4745 7.548 57.1625 6.124C57.2505 5.956 57.4065 5.872 57.6305 5.872H58.2785C58.0705 6.016 57.9065 6.2 57.7865 6.424C57.6665 6.64 57.5345 6.936 57.3905 7.312C57.2545 7.688 57.0785 8.188 56.8625 8.812C56.6545 9.436 56.4945 9.904 56.3825 10.216C57.1345 9.992 57.7105 9.596 58.1105 9.028C58.2865 8.78 58.5385 8.34 58.8665 7.708C58.9225 7.596 58.9705 7.552 59.0105 7.576C59.0585 7.6 59.0825 7.632 59.0825 7.672C59.0825 7.712 59.0145 7.868 58.8785 8.14C58.7505 8.404 58.6185 8.652 58.4825 8.884C58.3465 9.108 58.1705 9.34 57.9545 9.58C57.7385 9.82 57.4985 10.008 57.2345 10.144C56.9705 10.288 56.6185 10.44 56.1785 10.6C55.5625 11.72 54.9425 12.544 54.3185 13.072C53.7345 13.552 53.1025 13.792 52.4225 13.792ZM51.7265 12.604C51.6385 12.78 51.5945 12.94 51.5945 13.084C51.5945 13.236 51.6505 13.352 51.7625 13.432C51.8745 13.512 52.0145 13.552 52.1825 13.552C52.6465 13.552 53.1425 13.312 53.6705 12.832C54.1985 12.36 54.6625 11.852 55.0625 11.308L55.3265 10.864C54.0065 11.208 53.1745 11.456 52.8305 11.608C52.3185 11.832 51.9505 12.164 51.7265 12.604ZM58.0435 13.792C57.2915 13.792 56.9155 13.484 56.9155 12.868C56.9155 12.356 57.2635 11.896 57.9595 11.488C58.5515 11.144 59.3075 10.82 60.2275 10.516C60.6515 10.38 60.9595 10.272 61.1515 10.192C61.3595 9.584 61.4635 8.92 61.4635 8.2C61.4635 8.056 61.4555 7.948 61.4395 7.876C61.2155 8.332 60.9075 8.8 60.5155 9.28C60.0515 9.856 59.5915 10.08 59.1355 9.952C58.7195 9.776 58.5115 9.432 58.5115 8.92C58.5115 8.232 58.8555 7.476 59.5435 6.652C59.9195 6.204 60.3595 5.92 60.8635 5.8C60.9995 5.76 61.1355 5.74 61.2715 5.74C61.6315 5.74 61.9835 5.86 62.3275 6.1C62.4555 6.204 62.5195 6.292 62.5195 6.364C62.5195 6.436 62.4955 6.508 62.4475 6.58C62.3995 6.644 62.3475 6.652 62.2915 6.604C62.2435 6.548 62.2115 6.496 62.1955 6.448C62.0915 6.152 61.9235 6.004 61.6915 6.004C61.2675 6.004 60.7915 6.3 60.2635 6.892C59.9675 7.228 59.7115 7.588 59.4955 7.972C59.2315 8.452 59.0995 8.824 59.0995 9.088C59.0995 9.344 59.1795 9.516 59.3395 9.604C59.3955 9.628 59.4515 9.64 59.5075 9.64C59.6915 9.64 59.9195 9.516 60.1915 9.268C60.4715 9.012 60.7275 8.692 60.9595 8.308C61.1995 7.916 61.3515 7.612 61.4155 7.396C61.4795 7.18 61.5555 7.044 61.6435 6.988C61.7395 6.932 61.8435 6.9 61.9555 6.892C62.0675 6.884 62.1435 6.864 62.1835 6.832C62.2475 7.192 62.2795 7.616 62.2795 8.104C62.2795 8.584 62.1955 9.132 62.0275 9.748C62.3955 9.484 62.6555 9.248 62.8075 9.04C62.9675 8.832 63.0915 8.644 63.1795 8.476C63.2755 8.308 63.3595 8.144 63.4315 7.984C63.5035 7.816 63.5515 7.708 63.5755 7.66C63.5995 7.612 63.6395 7.584 63.6955 7.576C63.7515 7.56 63.7795 7.584 63.7795 7.648C63.7795 7.688 63.7675 7.736 63.7435 7.792C63.3915 8.52 63.0955 9.048 62.8555 9.376C62.6235 9.696 62.3035 9.952 61.8955 10.144C61.7035 10.688 61.4235 11.228 61.0555 11.764C60.6955 12.3 60.2395 12.772 59.6875 13.18C59.1355 13.588 58.5875 13.792 58.0435 13.792ZM57.1675 13.096C57.1675 13.4 57.3635 13.552 57.7555 13.552C57.9875 13.552 58.2475 13.484 58.5355 13.348C58.8315 13.212 59.0755 13.072 59.2675 12.928C59.5955 12.664 59.9555 12.272 60.3475 11.752C60.6435 11.336 60.8715 10.932 61.0315 10.54L60.6115 10.684C59.3635 11.116 58.4835 11.5 57.9715 11.836C57.5955 12.084 57.3475 12.4 57.2275 12.784C57.1875 12.904 57.1675 13.008 57.1675 13.096ZM65.1907 5.188C65.1907 5.548 64.9627 5.888 64.5067 6.208C64.6667 6.216 64.8787 6.22 65.1427 6.22C65.4147 6.22 65.7547 6.2 66.1627 6.16C66.1787 6.184 66.1867 6.248 66.1867 6.352C66.1867 6.456 66.1387 6.612 66.0427 6.82C65.9467 7.02 65.8587 7.196 65.7787 7.348C65.7067 7.492 65.6347 7.632 65.5627 7.768C65.4987 7.896 65.4227 8.056 65.3347 8.248C65.2547 8.44 65.1867 8.616 65.1307 8.776C64.9307 9.384 64.9627 9.688 65.2267 9.688C65.5627 9.688 66.0587 9.02 66.7147 7.684C66.7707 7.58 66.8147 7.54 66.8467 7.564C66.8867 7.588 66.9067 7.62 66.9067 7.66C66.9067 7.692 66.8547 7.816 66.7507 8.032C66.6467 8.24 66.5347 8.456 66.4147 8.68C66.2947 8.904 66.1067 9.164 65.8507 9.46C65.5467 9.828 65.2547 10.012 64.9747 10.012C64.6627 10.012 64.4467 9.824 64.3267 9.448C64.3027 9.376 64.2907 9.268 64.2907 9.124C64.2907 8.98 64.3347 8.788 64.4227 8.548C64.5187 8.308 64.6667 8.016 64.8667 7.672C65.0667 7.328 65.1787 7.128 65.2027 7.072C65.2267 7.008 65.2387 6.948 65.2387 6.892C65.2387 6.644 64.9187 6.512 64.2787 6.496L64.1347 6.88C63.6307 8.2 63.1467 9.084 62.6827 9.532C62.6027 9.604 62.5627 9.58 62.5627 9.46C62.5627 9.436 62.5707 9.408 62.5867 9.376C63.0347 8.784 63.4227 8.084 63.7507 7.276C64.0787 6.468 64.3067 5.7 64.4347 4.972C64.4827 4.724 64.5947 4.6 64.7707 4.6C64.9467 4.6 65.0747 4.712 65.1547 4.936C65.1787 5.008 65.1907 5.092 65.1907 5.188ZM70.3359 6.748C70.1919 6.892 69.9879 7.22 69.7239 7.732C69.4599 8.236 69.2999 8.616 69.2439 8.872C69.1959 9.12 69.1719 9.324 69.1719 9.484C69.1719 9.636 69.2319 9.712 69.3519 9.712C69.5039 9.712 69.6919 9.572 69.9159 9.292C70.2439 8.884 70.5679 8.352 70.8879 7.696C70.9199 7.624 70.9559 7.584 70.9959 7.576C71.0599 7.552 71.0919 7.576 71.0919 7.648C71.0919 7.688 71.0799 7.736 71.0559 7.792C70.3199 9.28 69.6999 10.024 69.1959 10.024C68.9639 10.024 68.7759 9.912 68.6319 9.688C68.5599 9.568 68.5239 9.408 68.5239 9.208C68.5239 9.008 68.5639 8.764 68.6439 8.476C68.0039 9.508 67.4519 10.024 66.9879 10.024C66.8599 10.024 66.7439 9.984 66.6399 9.904C66.3999 9.736 66.2799 9.448 66.2799 9.04C66.2799 8.256 66.6199 7.46 67.2999 6.652C67.6839 6.204 68.1559 5.912 68.7159 5.776C68.8679 5.736 69.0119 5.716 69.1479 5.716C69.5159 5.716 69.8279 5.844 70.0839 6.1C70.1639 6.188 70.1879 6.272 70.1559 6.352C70.1239 6.432 70.0559 6.464 69.9519 6.448C69.8639 6.16 69.6719 6.016 69.3759 6.016C69.0319 6.016 68.6079 6.288 68.1039 6.832C67.8159 7.152 67.5479 7.528 67.2999 7.96C66.9879 8.48 66.8319 8.896 66.8319 9.208C66.8319 9.52 66.9319 9.676 67.1319 9.676C67.6119 9.676 68.2399 8.94 69.0159 7.468C69.1679 7.172 69.2959 6.972 69.3999 6.868C69.5039 6.756 69.6359 6.7 69.7959 6.7C69.8279 6.7 69.9079 6.712 70.0359 6.736C70.1719 6.76 70.2719 6.764 70.3359 6.748ZM74.4832 6.736C74.4832 7.088 74.3912 7.476 74.2072 7.9C74.0232 8.324 73.7672 8.732 73.4392 9.124C73.1192 9.516 72.7272 9.784 72.2632 9.928C72.0872 9.976 71.8832 10 71.6512 10C71.4272 10 71.1792 9.928 70.9072 9.784L69.7672 12.628C69.6472 12.884 69.5352 13.052 69.4312 13.132C69.3272 13.212 69.2272 13.252 69.1312 13.252C69.0352 13.252 68.9792 13.252 68.9632 13.252C68.9392 13.252 68.8672 13.24 68.7472 13.216C68.6192 13.192 68.5232 13.184 68.4592 13.192C68.6352 13.024 69.0832 12.224 69.8032 10.792C70.5152 9.368 70.9192 8.408 71.0152 7.912C70.9272 8.04 70.8432 8.108 70.7632 8.116C70.7152 8.116 70.7152 8.072 70.7632 7.984C70.8112 7.888 70.8912 7.708 71.0032 7.444C71.1472 7.1 71.2192 6.784 71.2192 6.496C71.2192 6.2 71.1632 6.028 71.0512 5.98C71.5312 5.9 71.8112 5.864 71.8912 5.872C71.9712 5.872 72.0192 5.904 72.0352 5.968C72.0592 6.032 72.0712 6.104 72.0712 6.184C72.0712 6.672 71.9592 7.216 71.7352 7.816L71.9752 7.432C72.2632 6.968 72.4712 6.668 72.5992 6.532C72.7352 6.396 72.8792 6.256 73.0312 6.112C73.2632 5.888 73.4872 5.776 73.7032 5.776C73.7672 5.776 73.8272 5.784 73.8832 5.8C74.2832 5.904 74.4832 6.216 74.4832 6.736ZM73.9072 6.616C73.9072 6.488 73.8792 6.372 73.8232 6.268C73.7752 6.156 73.6952 6.1 73.5832 6.1C73.3032 6.1 72.9752 6.36 72.5992 6.88C72.2312 7.4 71.6992 8.308 71.0032 9.604C71.1072 9.708 71.2512 9.76 71.4352 9.76C71.6192 9.76 71.8792 9.62 72.2152 9.34C72.7512 8.892 73.1992 8.336 73.5592 7.672C73.7912 7.24 73.9072 6.888 73.9072 6.616ZM77.0505 9.46C77.0505 9.684 77.1305 9.796 77.2905 9.796C77.6665 9.796 78.1985 9.092 78.8865 7.684C78.9425 7.572 78.9905 7.528 79.0305 7.552C79.0785 7.576 79.1025 7.608 79.1025 7.648C79.1025 7.688 79.0545 7.804 78.9585 7.996C78.8705 8.18 78.7785 8.36 78.6825 8.536C78.5945 8.704 78.4625 8.928 78.2865 9.208C77.9185 9.768 77.5265 10.048 77.1105 10.048C76.8385 10.048 76.6225 9.936 76.4625 9.712C76.3905 9.608 76.3545 9.468 76.3545 9.292C76.3545 9.108 76.3945 8.888 76.4745 8.632C76.5545 8.376 76.7745 7.96 77.1345 7.384C77.2225 7.24 77.2665 7.128 77.2665 7.048C77.2665 6.96 77.1985 6.916 77.0625 6.916C76.9265 6.916 76.6665 7.096 76.2825 7.456C75.7065 7.984 75.1465 8.776 74.6025 9.832C74.5465 9.952 74.3985 10.012 74.1585 10.012C73.9425 10.028 73.8065 10.052 73.7505 10.084C75.2705 6.924 76.3705 4.72 77.0505 3.472C77.2025 3.192 77.3345 2.996 77.4465 2.884C77.5665 2.772 77.7065 2.716 77.8665 2.716C77.9065 2.716 77.9905 2.728 78.1185 2.752C78.2465 2.768 78.3425 2.772 78.4065 2.764C78.1665 3.012 77.7345 3.7 77.1105 4.828C76.4945 5.948 75.9025 7.088 75.3345 8.248C75.7105 7.776 76.0465 7.408 76.3425 7.144C76.6465 6.88 77.0145 6.632 77.4465 6.4C77.8785 6.16 78.1945 6.04 78.3945 6.04C78.4425 6.04 78.4865 6.048 78.5265 6.064C77.5425 7.792 77.0505 8.924 77.0505 9.46ZM77.2428 13.792C76.8908 13.792 76.6188 13.716 76.4268 13.564C76.2348 13.42 76.1388 13.244 76.1388 13.036C76.1388 12.828 76.1988 12.592 76.3188 12.328C76.5268 11.92 76.9028 11.592 77.4468 11.344C77.8548 11.152 78.3948 10.972 79.0668 10.804C79.7388 10.644 80.1708 10.536 80.3628 10.48C80.6508 9.976 80.9948 9.076 81.3948 7.78C80.9308 8.596 80.5428 9.168 80.2308 9.496C79.9188 9.824 79.6028 9.988 79.2828 9.988C78.8508 9.988 78.5988 9.808 78.5268 9.448C78.4948 9.392 78.4868 9.308 78.5028 9.196C78.5188 9.084 78.5268 9.004 78.5268 8.956C78.5348 8.908 78.5628 8.832 78.6108 8.728C78.6588 8.616 78.6908 8.536 78.7068 8.488C78.7948 8.304 78.8708 8.16 78.9348 8.056C78.8068 8.056 78.7708 7.992 78.8268 7.864L79.0428 7.444C79.3148 6.924 79.5388 6.484 79.7148 6.124C79.7948 5.956 79.9508 5.872 80.1828 5.872H80.9148C80.8988 5.888 80.8588 5.92 80.7948 5.968C80.6508 6.064 80.5428 6.176 80.4708 6.304C80.1828 6.8 79.8228 7.508 79.3908 8.428C79.2148 8.804 79.1268 9.08 79.1268 9.256C79.1268 9.432 79.1548 9.556 79.2108 9.628C79.2748 9.7 79.3588 9.736 79.4628 9.736C79.6148 9.736 79.8268 9.576 80.0988 9.256C80.6668 8.592 81.2948 7.548 81.9828 6.124C82.0708 5.956 82.2268 5.872 82.4508 5.872H83.0988C82.8908 6.016 82.7268 6.2 82.6068 6.424C82.4868 6.64 82.3548 6.936 82.2108 7.312C82.0748 7.688 81.8988 8.188 81.6828 8.812C81.4748 9.436 81.3148 9.904 81.2028 10.216C81.9548 9.992 82.5308 9.596 82.9308 9.028C83.1068 8.78 83.3588 8.34 83.6868 7.708C83.7428 7.596 83.7908 7.552 83.8308 7.576C83.8788 7.6 83.9028 7.632 83.9028 7.672C83.9028 7.712 83.8348 7.868 83.6988 8.14C83.5708 8.404 83.4388 8.652 83.3028 8.884C83.1668 9.108 82.9908 9.34 82.7748 9.58C82.5588 9.82 82.3188 10.008 82.0548 10.144C81.7908 10.288 81.4388 10.44 80.9988 10.6C80.3828 11.72 79.7628 12.544 79.1388 13.072C78.5548 13.552 77.9228 13.792 77.2428 13.792ZM76.5468 12.604C76.4588 12.78 76.4148 12.94 76.4148 13.084C76.4148 13.236 76.4708 13.352 76.5828 13.432C76.6948 13.512 76.8348 13.552 77.0028 13.552C77.4668 13.552 77.9628 13.312 78.4908 12.832C79.0188 12.36 79.4828 11.852 79.8828 11.308L80.1468 10.864C78.8268 11.208 77.9948 11.456 77.6508 11.608C77.1388 11.832 76.7708 12.164 76.5468 12.604Z" />
</svg>
